<svg width="140" height="24" viewBox="0 0 140 24" fill="none" xmlns="http://www.w3.org/2000/svg">
<path d="M3.46 22H0.4V0.64L14.92 15.85V1.99H17.98V23.23L3.46 8.02V22ZM31.0928 17.74L33.5528 19.12C32.9928 20.12 32.2828 20.89 31.4228 21.43C30.4428 22.07 29.2028 22.39 27.7028 22.39C25.9428 22.39 24.5228 21.85 23.4428 20.77C22.2028 19.53 21.5828 17.92 21.5828 15.94C21.5828 13.86 22.2528 12.13 23.5928 10.75C24.7328 9.61 26.1428 9.04 27.8228 9.04C29.4628 9.04 30.8128 9.59 31.8728 10.69C33.0528 11.91 33.6428 13.69 33.6428 16.03V16.39H24.5828C24.6628 17.45 25.0228 18.3 25.6628 18.94C26.2028 19.48 26.9528 19.75 27.9128 19.75C28.6928 19.75 29.3628 19.54 29.9228 19.12C30.3828 18.76 30.7728 18.3 31.0928 17.74ZM24.7928 13.99H30.6428C30.5228 13.29 30.2228 12.72 29.7428 12.28C29.2228 11.8 28.5628 11.56 27.7628 11.56C26.9228 11.56 26.2328 11.83 25.6928 12.37C25.2528 12.77 24.9528 13.31 24.7928 13.99ZM41.9955 12.07H39.7455V22H36.8055V12.07H35.5755V9.37H36.8055V4.75H39.7455V9.37H41.9955V12.07Z" fill="#315EFF"/>
<path d="M42.3011 9.37H45.6011L48.8411 16.57L52.0811 9.37H55.3811L48.8411 22.9L42.3011 9.37ZM58.3954 10.93C59.6954 9.67 61.3054 9.04 63.2254 9.04C65.1454 9.04 66.7454 9.67 68.0254 10.93C69.3254 12.17 69.9754 13.76 69.9754 15.7C69.9754 17.62 69.3254 19.22 68.0254 20.5C66.7454 21.76 65.1454 22.39 63.2254 22.39C61.3054 22.39 59.6954 21.76 58.3954 20.5C57.1154 19.22 56.4754 17.62 56.4754 15.7C56.4754 13.76 57.1154 12.17 58.3954 10.93ZM60.4954 18.67C61.1754 19.39 62.0854 19.75 63.2254 19.75C64.3654 19.75 65.2754 19.39 65.9554 18.67C66.6354 17.93 66.9754 16.95 66.9754 15.73C66.9754 14.39 66.6054 13.38 65.8654 12.7C65.1454 12.02 64.2654 11.68 63.2254 11.68C62.1854 11.68 61.2954 12.02 60.5554 12.7C59.8354 13.38 59.4754 14.39 59.4754 15.73C59.4754 16.95 59.8154 17.93 60.4954 18.67ZM73.0436 0.129999H75.9836V22H73.0436V0.129999ZM80.954 10.93C82.254 9.67 83.864 9.04 85.784 9.04C87.704 9.04 89.304 9.67 90.584 10.93C91.884 12.17 92.534 13.76 92.534 15.7C92.534 17.62 91.884 19.22 90.584 20.5C89.304 21.76 87.704 22.39 85.784 22.39C83.864 22.39 82.254 21.76 80.954 20.5C79.674 19.22 79.034 17.62 79.034 15.7C79.034 13.76 79.674 12.17 80.954 10.93ZM83.054 18.67C83.734 19.39 84.644 19.75 85.784 19.75C86.924 19.75 87.834 19.39 88.514 18.67C89.194 17.93 89.534 16.95 89.534 15.73C89.534 14.39 89.164 13.38 88.424 12.7C87.704 12.02 86.824 11.68 85.784 11.68C84.744 11.68 83.854 12.02 83.114 12.7C82.394 13.38 82.034 14.39 82.034 15.73C82.034 16.95 82.374 17.93 83.054 18.67ZM103.312 11.26L101.122 12.7C100.682 11.98 100.082 11.62 99.3222 11.62C98.9422 11.62 98.6422 11.73 98.4222 11.95C98.2422 12.13 98.1522 12.35 98.1522 12.61C98.1522 12.91 98.2922 13.15 98.5722 13.33C98.6322 13.37 98.6922 13.41 98.7522 13.45C98.8122 13.47 98.9222 13.52 99.0822 13.6C99.2422 13.68 99.4022 13.76 99.5622 13.84L101.062 14.59C101.902 15.01 102.492 15.4 102.832 15.76C103.452 16.38 103.762 17.16 103.762 18.1C103.762 19.22 103.392 20.18 102.652 20.98C101.792 21.92 100.612 22.39 99.1122 22.39C97.9922 22.39 97.0822 22.12 96.3822 21.58C95.6222 21.02 95.0822 20.25 94.7622 19.27L97.1622 18.13C97.3622 18.71 97.5922 19.11 97.8522 19.33C98.1722 19.65 98.6022 19.81 99.1422 19.81C99.6622 19.81 100.062 19.67 100.342 19.39C100.622 19.11 100.762 18.78 100.762 18.4C100.762 18.04 100.632 17.72 100.372 17.44C100.092 17.16 99.6722 16.9 99.1122 16.66L98.0322 16.15C97.1922 15.75 96.6122 15.39 96.2922 15.07C95.6922 14.49 95.3922 13.78 95.3922 12.94C95.3922 11.88 95.7422 10.98 96.4422 10.24C97.2022 9.44 98.2322 9.04 99.5322 9.04C100.432 9.04 101.212 9.26 101.872 9.7C102.472 10.08 102.952 10.6 103.312 11.26ZM115.653 10.84V9.37H118.593V22H115.653V20.68C114.673 21.82 113.413 22.39 111.873 22.39C110.013 22.39 108.523 21.73 107.403 20.41C106.303 19.09 105.753 17.51 105.753 15.67C105.753 13.67 106.343 12.07 107.523 10.87C108.723 9.65 110.183 9.04 111.903 9.04C113.483 9.04 114.733 9.64 115.653 10.84ZM112.263 11.68C111.223 11.68 110.373 12.07 109.713 12.85C109.073 13.63 108.753 14.59 108.753 15.73C108.753 16.85 109.073 17.8 109.713 18.58C110.373 19.36 111.223 19.75 112.263 19.75C113.263 19.75 114.103 19.4 114.783 18.7C115.483 18 115.833 17.02 115.833 15.76C115.833 14.46 115.483 13.46 114.783 12.76C114.103 12.04 113.263 11.68 112.263 11.68ZM122.321 22V9.37H125.261V10.54C126.081 9.54 127.121 9.04 128.381 9.04C129.841 9.04 130.931 9.66 131.651 10.9C132.511 9.66 133.761 9.04 135.401 9.04C137.041 9.04 138.241 9.7 139.001 11.02C139.441 11.8 139.661 12.86 139.661 14.2V22H136.721V15.04C136.721 13.94 136.631 13.19 136.451 12.79C136.171 12.05 135.611 11.68 134.771 11.68C134.051 11.68 133.471 11.99 133.031 12.61C132.651 13.15 132.461 14.11 132.461 15.49V22H129.521V15.04C129.521 13.94 129.431 13.19 129.251 12.79C128.971 12.05 128.411 11.68 127.571 11.68C126.851 11.68 126.271 11.99 125.831 12.61C125.451 13.15 125.261 14.11 125.261 15.49V22H122.321Z" fill="#C300D3"/>
</svg>
