<svg width="21" height="21" viewBox="0 0 21 21" fill="none" xmlns="http://www.w3.org/2000/svg">
<path d="M14.108 6.01735C14.0791 9.21785 12.7874 12.2774 10.514 14.5303C8.24055 16.7832 5.16937 18.047 1.96875 18.0469C1.70767 18.0469 1.45729 18.1506 1.27269 18.3352C1.08808 18.5198 0.984371 18.7702 0.984371 19.0312C0.984371 19.2923 1.08808 19.5427 1.27269 19.7273C1.45729 19.9119 1.70767 20.0156 1.96875 20.0156C5.6931 20.019 9.26744 18.5483 11.9109 15.9248C14.5544 13.3013 16.0521 9.73814 16.0768 6.01387L15.0937 4.70309L14.108 6.01735ZM10.3687 6.62812L14.3062 1.37812C14.3979 1.25586 14.5168 1.15663 14.6535 1.08829C14.7902 1.01995 14.9409 0.984368 15.0937 0.984368C15.2466 0.984368 15.3973 1.01995 15.534 1.08829C15.6707 1.15663 15.7896 1.25586 15.8812 1.37812L19.8187 6.62812C19.9754 6.83698 20.0426 7.09951 20.0057 7.35795C19.9688 7.6164 19.8307 7.8496 19.6219 8.00624C19.413 8.16289 19.1505 8.23015 18.892 8.19322C18.6336 8.1563 18.4004 8.01823 18.2437 7.80937L15.0937 3.60937L11.9437 7.80937C11.8662 7.91278 11.769 7.99991 11.6578 8.06577C11.5465 8.13164 11.4234 8.17494 11.2955 8.19322C11.1675 8.21151 11.0372 8.2044 10.9119 8.17232C10.7867 8.14024 10.669 8.08381 10.5656 8.00624C10.3568 7.8496 10.2187 7.6164 10.1818 7.35795C10.1635 7.22998 10.1706 7.09967 10.2027 6.97444C10.2348 6.84921 10.2912 6.73153 10.3687 6.62812Z" fill="url(#paint0_linear)"/>
<defs>
<linearGradient id="paint0_linear" x1="-10.62" y1="20.7687" x2="-9.54353" y2="-7.26053" gradientUnits="userSpaceOnUse">
<stop stop-color="#315EFF"/>
<stop offset="1" stop-color="#C300D3"/>
</linearGradient>
</defs>
</svg>
