<svg width="30" height="30" viewBox="0 0 30 30" fill="none" xmlns="http://www.w3.org/2000/svg">
<g clip-path="url(#clip0)">
<path d="M-8.77231e-07 6.24965L-1.16375e-07 23.656C-5.44091e-08 25.0736 1.16622 26.3184 2.54663 26.3184L28.2959 26.3184C28.758 26.3184 29.1431 26.1898 29.4406 25.9825C29.7963 25.7346 30.0002 25.3355 30 24.9075C30 24.5029 29.8199 24.0721 29.4801 23.6742L22.868 15.8867C22.6626 15.6461 22.5449 15.3006 22.5449 14.9414C22.5449 14.5824 22.6626 14.2376 22.8686 13.9964L29.4791 6.23479C29.8199 5.83554 30.0002 5.43444 30.0002 5.03052C30.0002 4.34745 29.4733 3.68165 28.296 3.68165L2.54663 3.68166C1.16621 3.68166 -9.39198e-07 4.83202 -8.77231e-07 6.24965Z" fill="#D3D2FF"/>
</g>
<defs>
<clipPath id="clip0">
<rect width="30" height="30" fill="white" transform="translate(0 30) rotate(-90)"/>
</clipPath>
</defs>
</svg>
