<svg width="50" height="60" viewBox="0 0 50 60" fill="none" xmlns="http://www.w3.org/2000/svg">
<path d="M48.2478 43.6566C48.2478 43.6566 48.249 39.4968 48.2327 39.0777C48.1595 37.1926 46.8231 36.1761 45.3901 35.2131C43.7367 34.1019 42.0709 33.0752 41.3841 31.1211C41.2438 30.7219 40.9362 30.4044 40.5402 30.2502C40.1389 30.0939 39.6903 30.1206 39.3097 30.3236C38.9867 30.4958 38.6667 30.6757 38.3572 30.8497C37.6584 31.2425 36.9984 31.6136 36.3067 31.9043C34.2797 32.7561 32.0551 32.9487 29.9038 33.2273C28.9651 33.349 28.027 33.4839 27.1028 33.6909C26.6052 33.8024 26.0373 33.9886 25.4735 34.236L26.8635 18.5411C26.9064 18.057 26.5486 17.6297 26.0645 17.5868C25.5813 17.5437 25.1531 17.9017 25.1102 18.3858C25.1102 18.3858 23.6068 35.3619 23.6066 35.362C22.5316 36.2722 22.0069 37.6082 22.0213 39.015C22.0246 39.3359 22.0365 43.6564 22.0365 43.6564C21.1172 43.6739 20.3743 44.4258 20.3743 45.3493V50.478H5.68019L2.11933 6.46336H25.8937L25.3773 14.3207C25.3454 14.8056 25.7128 15.2246 26.1977 15.2565C26.6819 15.2873 27.1017 14.921 27.1336 14.4361C27.1336 14.4361 27.9607 1.80094 27.9583 1.7352C27.9512 1.30277 27.7851 0.883008 27.4891 0.563906C27.1653 0.214922 26.7098 0.0124219 26.2346 0.00199219C26.2221 0.00175781 26.2096 0 26.1966 0C26.1966 0 1.74573 0 1.74538 0C1.73155 0 1.71796 0.001875 1.70413 0.00222656C1.23023 0.0135938 0.776241 0.215859 0.453155 0.564023C-0.0816883 1.14047 -0.018993 1.79344 0.0339758 2.51484L3.98847 51.3937V57.6667C3.98847 58.9533 5.03519 60 6.32179 60H21.6205C21.9873 60 22.3337 59.9137 22.6425 59.7619C23.0382 59.915 23.4677 60 23.9169 60H46.3677C48.321 60 49.91 58.4108 49.91 56.4577V45.3495C49.9101 44.4259 49.1673 43.674 48.2478 43.6566ZM1.82226 2.79234L1.74679 1.77492C1.74937 1.76812 1.75265 1.76297 1.75511 1.76016L26.1878 1.76156C26.1915 1.76637 26.1954 1.77738 26.1975 1.79227L25.9792 4.70332H1.97683L1.82226 2.79234ZM16.715 58.2398H11.2274V56.6404C11.2274 56.3529 11.4613 56.119 11.7487 56.119H16.1938C16.4812 56.119 16.7151 56.3529 16.7151 56.6404V58.2398H16.715ZM18.4751 58.2398V56.6404C18.4751 55.3823 17.4516 54.3589 16.1937 54.3589H11.7486C10.4906 54.3589 9.46722 55.3825 9.46722 56.6404V58.2398H6.32179C6.00573 58.2398 5.74851 57.9827 5.74851 57.6667V52.2382H20.3744V56.4575C20.3744 57.1071 20.5509 57.7159 20.8574 58.2398H18.4751ZM24.5005 36.935C25.168 36.2227 26.5085 35.6278 27.4876 35.4084C28.5958 35.1602 29.7108 35.0218 30.8913 34.8755C31.5258 34.7968 32.1818 34.7154 32.8299 34.6159C34.5151 34.357 35.8366 34.0111 36.9886 33.5269C37.7732 33.1972 38.5085 32.7838 39.2196 32.3841C39.4267 32.2677 39.6388 32.1485 39.8505 32.0325C40.2719 33.0159 40.8849 33.9506 41.6882 34.6623C42.8139 35.6598 44.1716 36.4866 45.4008 37.3502C46.0767 37.8252 46.4273 38.3946 46.4712 39.0895H23.7825C23.7821 39.0586 23.7818 39.0277 23.7814 38.9968C23.7723 38.1115 23.994 37.4756 24.5005 36.935ZM46.4878 40.8496V43.6549H23.7968V40.8496H46.4878ZM48.15 56.4577C48.15 57.4404 47.3504 58.24 46.3677 58.24H23.9169C22.9342 58.24 22.1346 57.4404 22.1346 56.4577V45.4151H48.15V56.4577Z" fill="url(#paint0_linear)"/>
<path d="M27.4225 55.788H30.6861C31.1721 55.788 31.5662 55.394 31.5662 54.9079C31.5662 54.4219 31.1722 54.0278 30.6861 54.0278H27.4225C27.3938 54.0278 27.3704 54.0045 27.3704 53.9758V49.679C27.3704 49.6503 27.3937 49.6269 27.4225 49.6269H42.8621C42.8908 49.6269 42.9143 49.6502 42.9143 49.679V53.9758C42.9143 54.0045 42.8909 54.0278 42.8621 54.0278H34.7539C34.2679 54.0278 33.8738 54.4218 33.8738 54.9079C33.8738 55.3939 34.2678 55.788 34.7539 55.788H42.8621C43.8614 55.788 44.6743 54.9751 44.6743 53.9758V49.679C44.6743 48.6798 43.8614 47.8668 42.8621 47.8668H27.4225C26.4233 47.8668 25.6104 48.6798 25.6104 49.679V53.9758C25.6102 54.9751 26.4232 55.788 27.4225 55.788Z" fill="url(#paint1_linear)"/>
<path d="M13.971 36.6818C13.1302 36.6818 12.2897 36.4881 11.5233 36.1006L11.5052 36.0915C9.75609 35.2042 8.51461 33.6888 8.09859 31.9337C6.92754 26.9918 11.5134 21.998 12.947 20.585C13.5116 20.0285 14.4306 20.0284 14.9952 20.585C16.4286 21.9979 21.0146 26.9916 19.8435 31.9336C19.4276 33.6886 18.1862 35.2039 16.4373 36.0912L16.4196 36.1002C15.653 36.488 14.8118 36.6818 13.971 36.6818ZM13.9712 22.0505C13.2383 22.7961 12.0574 24.1164 11.106 25.7381C9.84562 27.8864 9.41004 29.8344 9.81129 31.5279C10.1075 32.778 11.015 33.8693 12.3011 34.5217L12.3179 34.5302C13.3527 35.0535 14.5891 35.0535 15.6247 34.5299L15.6414 34.5214C16.927 33.8693 17.8345 32.778 18.1308 31.528C18.5321 29.8344 18.0966 27.8864 16.8362 25.7381C15.885 24.1165 14.704 22.796 13.9712 22.0505Z" fill="url(#paint2_linear)"/>
<defs>
<linearGradient id="paint0_linear" x1="-1.97486" y1="96.5853" x2="71.5659" y2="94.2359" gradientUnits="userSpaceOnUse">
<stop stop-color="#315EFF"/>
<stop offset="1" stop-color="#C300D3"/>
</linearGradient>
<linearGradient id="paint1_linear" x1="24.856" y1="60.618" x2="52.7366" y2="58.0409" gradientUnits="userSpaceOnUse">
<stop stop-color="#315EFF"/>
<stop offset="1" stop-color="#C300D3"/>
</linearGradient>
<linearGradient id="paint2_linear" x1="7.42953" y1="46.7514" x2="25.2973" y2="46.2476" gradientUnits="userSpaceOnUse">
<stop stop-color="#315EFF"/>
<stop offset="1" stop-color="#C300D3"/>
</linearGradient>
</defs>
</svg>
