<svg width="60" height="50" viewBox="0 0 60 50" fill="none" xmlns="http://www.w3.org/2000/svg">
<path d="M37.6179 48.1324C34.1441 46.4946 30.4792 44.7087 27.2115 42.7468C26.7953 42.4969 26.2554 42.6318 26.0057 43.048C25.7557 43.4641 25.8906 44.004 26.3067 44.254C29.6407 46.2555 33.3531 48.065 36.8682 49.7224C37.31 49.9308 37.8324 49.7384 38.038 49.3022C38.245 48.8632 38.057 48.3394 37.6179 48.1324Z" fill="url(#paint0_linear)"/>
<path d="M24.105 40.7386C17.6149 36.1931 14.1954 31.1903 13.3434 24.9946C12.9601 22.2067 10.2677 20.0233 7.08082 19.916C6.82828 19.9075 7.03758 19.913 0.878906 19.9114C0.393398 19.9114 0 20.3048 0 20.7903C0 21.2758 0.393398 21.6692 0.878906 21.6692C7.1202 21.6705 6.82125 21.6662 7.02152 21.6729C9.04184 21.7408 11.3074 23.0914 11.6021 25.234C12.0971 28.8336 13.3788 32.0243 15.5208 34.9885C17.3753 37.5551 19.8534 39.9069 23.0965 42.1785C23.25 42.2859 23.4259 42.3375 23.5999 42.3375C23.877 42.3375 24.1495 42.2068 24.3206 41.9627C24.5992 41.5652 24.5026 41.0171 24.105 40.7386Z" fill="url(#paint1_linear)"/>
<path d="M59.829 25.8503C59.5412 25.4594 58.9914 25.3755 58.6002 25.663L53.5062 29.41C50.8527 31.3617 47.1112 30.9181 44.9876 28.3996C42.9203 25.9478 43.0291 22.3475 45.2404 20.0248L52.5777 12.3181C53.9187 10.9095 54.6205 9.06358 54.5534 7.11991C54.4863 5.17613 53.6591 3.38258 52.2242 2.06973C49.4427 -0.47523 45.1316 -0.425191 42.4096 2.18328L39.5445 4.9291C39.2425 4.62746 38.8413 4.4614 38.4146 4.4614C37.9877 4.4614 37.5863 4.62769 37.2842 4.92956L35.9821 6.23163C35.2994 6.1414 34.5837 6.35562 34.0601 6.87897L32.731 8.20811L32.7168 8.19393C32.3735 7.85081 31.817 7.85081 31.4738 8.19393C31.1306 8.53729 31.1306 9.0937 31.4738 9.43694L31.488 9.45112L30.8248 10.1143L30.8105 10.1C30.4672 9.75686 29.9108 9.75686 29.5675 10.1C29.2243 10.4433 29.2243 10.9997 29.5675 11.343L29.5818 11.3573L24.7627 16.1764L22.9688 13.5711C20.0816 9.37799 15.3185 6.87452 10.2275 6.87452H0.878905C0.393398 6.87452 0 7.26792 0 7.75343C0 8.23893 0.393398 8.63233 0.878905 8.63233H10.2275C14.7399 8.63233 18.9618 10.8513 21.5211 14.568L23.4987 17.4401L21.8772 19.0616C20.9843 19.9547 20.9843 21.4079 21.8773 22.3011L22.0741 22.4978L19.5646 25.0074C19.2214 25.3506 19.2214 25.9071 19.5648 26.2503C19.9079 26.5934 20.4644 26.5935 20.8077 26.2501L23.317 23.7407L23.5139 23.9376C24.4067 24.8302 25.8598 24.8308 26.7532 23.9376L27.4754 23.2153L41.0559 42.9385C41.3312 43.3383 41.8782 43.4393 42.2782 43.164C42.6781 42.8886 42.779 42.3414 42.5038 41.9416L28.7395 21.9516L30.4114 20.2797C30.7547 19.9363 30.7547 19.3799 30.4115 19.0367C30.0683 18.6937 29.5117 18.6934 29.1686 19.0367L25.5104 22.6947C25.3028 22.9025 24.9649 22.9025 24.757 22.6947L23.1203 21.058C22.9127 20.8505 22.9127 20.5124 23.1203 20.3048L30.8249 12.6002L33.2149 14.9901L31.6781 16.5269C31.3348 16.8702 31.3348 17.4266 31.6781 17.7699C32.0214 18.113 32.5778 18.113 32.9211 17.7699L34.4579 16.2331L34.472 16.2473C34.8155 16.5905 35.3718 16.5904 35.715 16.2473C36.0583 15.9039 36.0583 15.3475 35.715 15.0043L35.7009 14.9901L36.364 14.3269L36.3782 14.3411C36.7217 14.6844 37.278 14.6842 37.6212 14.3411C37.9645 13.9978 37.9645 13.4413 37.6212 13.0981L37.607 13.0839L38.9362 11.7548C39.4597 11.2313 39.6737 10.5156 39.5835 9.83291C40.5416 8.74753 41.3537 8.42585 41.3537 7.40046C41.3537 6.63569 40.8144 6.21007 40.7877 6.17234L43.6259 3.45242C45.6814 1.48227 48.9372 1.44488 51.0378 3.36664C52.1214 4.35816 52.746 5.71261 52.7966 7.1805C52.8472 8.64827 52.3173 10.0424 51.3047 11.106L43.9674 18.8127C41.1368 21.7859 40.9976 26.3944 43.6438 29.5329C45.2226 31.4053 47.5001 32.3817 49.7979 32.3817C51.4558 32.3817 53.1242 31.8733 54.5477 30.8263L59.6419 27.0794C60.0327 26.7915 60.1166 26.2414 59.829 25.8503ZM38.4147 6.28519L39.5302 7.40058L38.6757 8.25511L37.5603 7.13972L38.4147 6.28519ZM34.4579 13.7472L32.0679 11.3573L32.7311 10.6941L35.121 13.084L34.4579 13.7472ZM33.9741 9.45112L34.7137 8.71143C34.7188 8.71682 34.7234 8.72268 34.7287 8.72807L37.0871 11.0865C37.0923 11.0917 37.0982 11.0962 37.1036 11.1013L36.364 11.8409L33.9741 9.45112Z" fill="url(#paint2_linear)"/>
<defs>
<linearGradient id="paint0_linear" x1="25.3957" y1="54.188" x2="43.3754" y2="53.0115" gradientUnits="userSpaceOnUse">
<stop stop-color="#315EFF"/>
<stop offset="1" stop-color="#C300D3"/>
</linearGradient>
<linearGradient id="paint1_linear" x1="-0.968625" y1="56.0121" x2="35.075" y2="54.501" gradientUnits="userSpaceOnUse">
<stop stop-color="#315EFF"/>
<stop offset="1" stop-color="#C300D3"/>
</linearGradient>
<linearGradient id="paint2_linear" x1="-2.3741" y1="69.6152" x2="85.872" y2="64.8998" gradientUnits="userSpaceOnUse">
<stop stop-color="#315EFF"/>
<stop offset="1" stop-color="#C300D3"/>
</linearGradient>
</defs>
</svg>
