<svg width="59" height="60" viewBox="0 0 59 60" fill="none" xmlns="http://www.w3.org/2000/svg">
<path d="M0.946468 60.0001H57.2072C57.7259 60.0001 58.1447 59.5808 58.1447 59.0626C58.1447 58.544 57.7259 58.1251 57.2072 58.1251H0.946468C0.427824 58.1251 0.00897217 58.544 0.00897217 59.0626C0.00897217 59.5808 0.427824 60.0001 0.946468 60.0001Z" fill="url(#paint0_linear)"/>
<path d="M4.46117 37.724C3.58365 37.9433 2.04419 37.9433 1.16666 37.724C0.66404 37.5986 0.155009 37.9021 0.0295819 38.4056C-0.0972181 38.9083 0.208567 39.4173 0.711189 39.5427C1.30079 39.691 2.05838 39.7638 2.81369 39.7638C3.56945 39.7638 4.32705 39.691 4.91665 39.5427C5.15194 39.4837 5.43804 39.4425 5.74337 39.4145C5.68248 41.5321 5.6422 43.783 5.63396 46.1061C4.54449 46.4934 3.75714 47.5256 3.75714 48.746C3.75714 50.2969 5.01873 51.5585 6.56963 51.5585C8.12006 51.5585 9.38211 50.2969 9.38211 48.746C9.38211 47.5265 8.59614 46.4961 7.50895 46.107C7.51719 43.7926 7.55748 41.55 7.61836 39.4415C7.83305 39.4667 8.03767 39.5006 8.21116 39.5427H8.21391C8.8035 39.691 9.56018 39.7638 10.3155 39.7638C11.0713 39.7638 11.8289 39.691 12.4184 39.5427C13.296 39.3234 14.8354 39.3234 15.713 39.5427C16.0842 39.6366 16.5227 39.6956 16.9842 39.7304C16.9279 41.756 16.8903 43.8974 16.8839 46.1061C15.7944 46.4934 15.0071 47.5256 15.0071 48.746C15.0071 50.2969 16.2687 51.5585 17.8196 51.5585C19.37 51.5585 20.6321 50.2969 20.6321 48.746C20.6321 47.5265 19.8461 46.4961 18.7589 46.107C18.7662 43.8919 18.8047 41.7441 18.8601 39.7144C19.2423 39.6778 19.6053 39.6214 19.9184 39.5427C20.7959 39.3234 22.3354 39.3234 23.2129 39.5427H23.2157C23.8044 39.691 24.562 39.7638 25.3173 39.7638C25.6354 39.7638 25.9503 39.7482 26.2548 39.7217V48.746C26.2548 50.2969 27.5168 51.5585 29.0672 51.5585C30.6181 51.5585 31.8797 50.2969 31.8797 48.746V39.7217C32.1846 39.7482 32.4995 39.7638 32.8172 39.7638C33.5739 39.7638 34.3306 39.691 34.9202 39.5427C35.7977 39.3234 37.3372 39.3234 38.2147 39.5427H38.2175C38.5869 39.6356 39.0236 39.6956 39.4832 39.7304C39.4269 41.7551 39.3893 43.8974 39.3829 46.1061C38.2934 46.4934 37.5061 47.5256 37.5061 48.746C37.5061 50.2969 38.7677 51.5585 40.3186 51.5585C41.869 51.5585 43.1311 50.2969 43.1311 48.746C43.1311 47.5265 42.3451 46.4961 41.2579 46.107C41.2652 43.8928 41.3028 41.7441 41.3591 39.7153C41.7436 39.6787 42.108 39.6224 42.4229 39.5427C43.3004 39.3234 44.8399 39.3234 45.7174 39.5427C46.307 39.691 47.0646 39.7638 47.8204 39.7638C48.5757 39.7638 49.3333 39.691 49.9229 39.5427C50.1563 39.4837 50.4388 39.4434 50.7404 39.4155C50.6796 41.5331 50.6393 43.783 50.631 46.1061C49.5416 46.4934 48.7538 47.5256 48.7538 48.746C48.7538 50.2969 50.0158 51.5585 51.5662 51.5585C53.1171 51.5585 54.3787 50.2969 54.3787 48.746C54.3787 47.5265 53.5932 46.4961 52.506 46.107C52.5143 43.7917 52.5546 41.5491 52.6154 39.4397C52.8329 39.4658 53.0412 39.4988 53.2174 39.5427H53.2201C53.8097 39.691 54.5664 39.7638 55.3222 39.7638C56.0775 39.7638 56.8351 39.691 57.4247 39.5427C57.9264 39.4173 58.2322 38.9083 58.1063 38.4056C57.9809 37.903 57.4718 37.6013 56.9692 37.724C56.0917 37.9433 54.5522 37.9433 53.6747 37.724C53.6738 37.724 53.6729 37.724 53.672 37.724C53.3758 37.649 53.0357 37.5936 52.6754 37.556C52.6868 37.2461 52.6969 36.9403 52.7093 36.6373C52.8919 36.662 53.0672 36.6918 53.2183 36.7293H53.2238C53.8125 36.8767 54.5673 36.9495 55.3213 36.9495C56.0775 36.9495 56.8342 36.8767 57.4238 36.7284C57.9255 36.603 58.2313 36.0939 58.1054 35.5913C57.9799 35.0887 57.4709 34.7852 56.9683 34.9097C56.0908 35.129 54.5513 35.129 53.6738 34.9097C53.6729 34.9097 53.6729 34.9097 53.672 34.9097C53.671 34.9097 53.671 34.9088 53.6701 34.9088C53.406 34.8429 53.1039 34.7943 52.788 34.7577C53.0608 28.6713 53.433 24.5231 53.4385 24.4585C53.4856 23.9426 53.1057 23.4863 52.5903 23.4396C52.0698 23.3979 51.6189 23.7724 51.5713 24.2878C51.5653 24.3533 51.1886 28.5532 50.913 34.7092C50.3871 34.7399 49.8835 34.8058 49.4665 34.9097C48.589 35.129 47.0495 35.129 46.172 34.9097C46.1711 34.9097 46.1711 34.9088 46.1701 34.9088C44.9919 34.6154 43.1457 34.6154 41.9665 34.9097C41.8342 34.9427 41.6855 34.9688 41.5289 34.9921C41.8013 28.7794 42.183 24.524 42.1885 24.4585C42.2357 23.9426 41.8557 23.4872 41.3403 23.4405C40.8171 23.3993 40.3689 23.7733 40.3213 24.2896C40.3154 24.3565 39.9254 28.7098 39.6489 35.0502C39.2863 35.0251 38.9458 34.9797 38.672 34.9115C38.6711 34.9115 38.6711 34.9115 38.6702 34.9115C38.6693 34.9115 38.6693 34.9106 38.6683 34.9106C37.4901 34.6172 35.6439 34.6172 34.4647 34.9115C33.5872 35.1308 32.0477 35.1308 31.1702 34.9115C31.1308 34.901 31.0933 34.9106 31.0549 34.906C31.0164 34.901 30.983 34.8836 30.9422 34.8836C30.9189 34.8836 30.8974 34.8955 30.874 34.8973C30.8077 34.9024 30.7445 34.917 30.6809 34.9367C30.6264 34.9527 30.5751 34.9678 30.5243 34.9939C30.4689 35.0214 30.4222 35.0566 30.3732 35.0951C30.3266 35.1317 30.2826 35.1674 30.2432 35.2123C30.2048 35.2558 30.1764 35.3043 30.1467 35.3551C30.1137 35.4114 30.0849 35.4654 30.0629 35.5295C30.0556 35.5519 30.0395 35.5698 30.0331 35.5931C30.0226 35.6316 30.0322 35.6682 30.0276 35.7067C30.0226 35.746 30.0047 35.7804 30.0047 35.8211V48.7478C30.0047 49.2656 29.585 49.6853 29.0672 49.6853C28.55 49.6853 28.1298 49.2656 28.1298 48.7478V35.8188C28.1298 35.7785 28.1114 35.7442 28.1073 35.7048C28.1027 35.6664 28.1124 35.6298 28.1018 35.5913C28.0954 35.568 28.0794 35.5501 28.0721 35.5277C28.051 35.4645 28.0213 35.4091 27.9883 35.3524C27.9595 35.3015 27.9302 35.2549 27.8926 35.2114C27.8523 35.1647 27.8066 35.1281 27.7576 35.0905C27.7109 35.0539 27.666 35.0205 27.6143 34.993C27.5608 34.966 27.5058 34.9491 27.4468 34.933C27.3863 34.9152 27.3273 34.901 27.2646 34.8964C27.2394 34.8946 27.2179 34.8813 27.1923 34.8813C27.1511 34.8813 27.1176 34.9001 27.0774 34.9042C27.0398 34.9088 27.0032 34.9001 26.9647 34.9097C26.0872 35.129 24.5478 35.129 23.6702 34.9097C23.6693 34.9097 23.6693 34.9097 23.6684 34.9097C23.6675 34.9097 23.6675 34.9088 23.6666 34.9088C22.4874 34.6154 20.6412 34.6154 19.4629 34.9097C19.3325 34.9427 19.1855 34.9688 19.0308 34.9912C19.3036 28.7794 19.685 24.524 19.6905 24.4585C19.7376 23.9426 19.3577 23.4872 18.8422 23.4405C18.3208 23.3993 17.8708 23.7733 17.8232 24.2896C17.8173 24.3565 17.4277 28.7098 17.1508 35.0502C16.7864 35.0251 16.444 34.9797 16.1684 34.9115C16.1675 34.9115 16.1675 34.9106 16.1666 34.9106C14.9874 34.6172 13.1413 34.6172 11.963 34.9115C11.0854 35.1308 9.54599 35.1308 8.66846 34.9115C8.66755 34.9115 8.66755 34.9115 8.66663 34.9115C8.66572 34.9115 8.66572 34.9106 8.6648 34.9106C8.40296 34.8461 8.10404 34.7971 7.79002 34.7605C8.06376 28.6745 8.43592 24.5258 8.44141 24.4604C8.48856 23.9445 8.10862 23.4881 7.59318 23.4414C7.06721 23.4002 6.62181 23.7742 6.5742 24.2896C6.56871 24.3555 6.19151 28.5555 5.91594 34.711C5.38723 34.7399 4.88094 34.8067 4.46026 34.9115C3.58273 35.1308 2.04328 35.1308 1.16575 34.9115C0.663124 34.7829 0.154093 35.0896 0.0286665 35.5931C-0.0981337 36.0958 0.207651 36.6048 0.710274 36.7302C1.29987 36.8785 2.05747 36.9513 2.81369 36.9513C3.56945 36.9513 4.32522 36.8785 4.9139 36.7311C5.17345 36.6666 5.49526 36.6236 5.83629 36.5961C5.82393 36.9046 5.81386 37.2159 5.80242 37.5318C5.31582 37.5638 4.85119 37.6265 4.46117 37.724ZM51.4426 47.8332C51.4848 47.8387 51.5223 47.8575 51.5653 47.8575C51.6088 47.8575 51.6464 47.8378 51.6885 47.8332C52.1449 47.895 52.5028 48.2718 52.5028 48.746C52.5028 49.2637 52.0831 49.6835 51.5653 49.6835C51.0481 49.6835 50.6278 49.2637 50.6278 48.746C50.6278 48.2718 50.9863 47.896 51.4426 47.8332ZM41.4511 36.8923C41.8004 36.8561 42.1313 36.8016 42.4202 36.7293C43.2995 36.51 44.839 36.51 45.7183 36.7293H45.7211C46.3107 36.8767 47.0655 36.9495 47.8204 36.9495C48.5748 36.9495 49.3315 36.8767 49.9201 36.7293C50.1779 36.6657 50.496 36.6217 50.8343 36.5943C50.8219 36.9028 50.8119 37.215 50.8004 37.5308C50.3156 37.5647 49.8538 37.6274 49.4665 37.724C48.589 37.9433 47.0495 37.9433 46.172 37.724C44.9928 37.4279 43.1448 37.4279 41.9665 37.724C41.8045 37.7643 41.6159 37.7945 41.4181 37.8206C41.4282 37.5075 41.4387 37.1981 41.4511 36.8923ZM40.1945 47.8332C40.2366 47.8387 40.2742 47.8575 40.3172 47.8575C40.3607 47.8575 40.3982 47.8378 40.4403 47.8332C40.8967 47.895 41.2547 48.2718 41.2547 48.746C41.2547 49.2637 40.8349 49.6835 40.3172 49.6835C39.7999 49.6835 39.3797 49.2637 39.3797 48.746C39.3797 48.2718 39.7381 47.896 40.1945 47.8332ZM31.8797 36.9074C32.1855 36.9339 32.5005 36.9495 32.8186 36.9495C33.5739 36.9495 34.3297 36.8767 34.9184 36.7293C35.7977 36.51 37.3372 36.51 38.2165 36.7293H38.222C38.6148 36.8277 39.0826 36.8895 39.5729 36.9225C39.5619 37.2301 39.5514 37.5414 39.5404 37.8554C39.2186 37.8289 38.9187 37.7858 38.672 37.724C38.6711 37.724 38.6702 37.724 38.6693 37.724C37.4901 37.4279 35.643 37.4279 34.4647 37.724C33.7923 37.8929 32.7339 37.9314 31.8797 37.8412V36.9074ZM18.953 36.8914C19.3004 36.8547 19.6296 36.8016 19.9166 36.7293C20.7959 36.51 22.3354 36.51 23.2148 36.7293H23.2203C23.8089 36.8767 24.5638 36.9495 25.3173 36.9495C25.6354 36.9495 25.9503 36.9339 26.2548 36.9074V37.8412C25.401 37.9314 24.3427 37.8929 23.6702 37.724C23.6693 37.724 23.6684 37.724 23.6675 37.724C22.4883 37.4279 20.6412 37.4279 19.4629 37.724C19.3027 37.7643 19.116 37.7945 18.92 37.8206C18.9301 37.5075 18.9416 37.1981 18.953 36.8914ZM17.6964 47.8332C17.7386 47.8387 17.7761 47.8575 17.8196 47.8575C17.8626 47.8575 17.9001 47.8378 17.9423 47.8332C18.3986 47.895 18.7571 48.2718 18.7571 48.746C18.7571 49.2637 18.3369 49.6835 17.8196 49.6835C17.3019 49.6835 16.8821 49.2637 16.8821 48.746C16.8821 48.2718 17.2401 47.896 17.6964 47.8332ZM7.71311 36.6391C7.8921 36.6629 8.06468 36.6918 8.21299 36.7293H8.21848C8.80717 36.8767 9.56202 36.9495 10.3164 36.9495C11.0713 36.9495 11.8279 36.8767 12.4166 36.7293C13.296 36.51 14.8354 36.51 15.7148 36.7293H15.7175C16.1121 36.8277 16.5827 36.8904 17.0748 36.9225C17.0638 37.2301 17.0533 37.5414 17.0423 37.8563C16.7187 37.8289 16.4161 37.7867 16.1684 37.724C14.9892 37.4279 13.1413 37.4279 11.963 37.724C11.0854 37.9433 9.54599 37.9433 8.66846 37.724C8.66755 37.724 8.66663 37.724 8.66572 37.724C8.37229 37.6499 8.03584 37.5936 7.67833 37.5569C7.68977 37.247 7.70121 36.9413 7.71311 36.6391ZM6.44649 47.8332C6.4886 47.8387 6.52614 47.8575 6.56963 47.8575C6.61266 47.8575 6.65019 47.8378 6.69231 47.8332C7.14869 47.895 7.50712 48.2718 7.50712 48.746C7.50712 49.2637 7.0869 49.6835 6.56963 49.6835C6.0519 49.6835 5.63213 49.2637 5.63213 48.746C5.63213 48.2718 5.9901 47.896 6.44649 47.8332Z" fill="url(#paint1_linear)"/>
<path d="M24.6677 17.5409C24.8508 17.7235 25.0907 17.8155 25.3305 17.8155C25.5704 17.8155 25.8107 17.7235 25.9934 17.5409L28.4694 15.0648C28.4516 15.4425 28.4346 15.8288 28.4168 16.2225L26.5505 18.0893C26.5496 18.0902 26.5473 18.0902 26.5463 18.092C26.1801 18.4587 26.1801 19.051 26.5463 19.4177L28.246 21.1174C28.1902 23.2322 28.159 25.321 28.1526 27.358C27.0604 27.7453 26.2708 28.7775 26.2708 30.0002C26.2708 31.5507 27.5328 32.8127 29.0833 32.8127C30.6342 32.8127 31.8958 31.5507 31.8958 30.0002C31.8958 28.7812 31.113 27.7517 30.0276 27.3617C30.034 25.2592 30.0661 23.0999 30.126 20.9136L49.4344 1.60022C49.8011 1.23401 49.8011 0.640294 49.4344 0.275C49.0682 -0.0916668 48.4754 -0.0916668 48.1088 0.275L29.0851 19.3042L28.5358 18.7548L45.6845 1.60022C46.0511 1.23401 46.0511 0.640294 45.6845 0.275C45.3182 -0.0916668 44.7254 -0.0916668 44.3588 0.275L30.3856 14.2518C30.4053 13.8518 30.4268 13.4645 30.4465 13.0855L41.9326 1.60114C42.2993 1.23493 42.2993 0.642125 41.9326 0.275916C41.566 -0.0907513 40.9736 -0.0907513 40.607 0.275916L30.6163 10.2666C30.6424 9.84772 30.6699 9.4577 30.695 9.0892L38.1827 1.60022C38.5493 1.23401 38.5493 0.64121 38.1827 0.275C37.816 -0.0916668 37.2236 -0.0916668 36.857 0.275L30.9106 6.22224C30.9377 5.89128 30.9546 5.70772 30.9555 5.69902C31.0027 5.18358 30.6227 4.72811 30.1073 4.68096C29.5813 4.63976 29.1359 5.01375 29.0883 5.53056C29.086 5.55116 28.9963 6.55137 28.8736 8.2602L22.7927 14.3411C22.426 14.7078 22.426 15.3001 22.7927 15.6668L24.6677 17.5409ZM29.0141 29.0765C29.0384 29.0783 29.0599 29.0906 29.0842 29.0906C29.1089 29.0906 29.1304 29.0783 29.1547 29.0765C29.6376 29.1149 30.0217 29.5077 30.0217 30.0002C30.0217 30.5166 29.6019 30.9377 29.0842 30.9377C28.5669 30.9377 28.1467 30.5166 28.1467 30.0002C28.1467 29.5077 28.5312 29.1149 29.0141 29.0765ZM28.685 11.0992C28.6626 11.4732 28.6383 11.8632 28.6154 12.2674L25.3305 15.5523L24.7812 15.003L28.685 11.0992Z" fill="url(#paint2_linear)"/>
<defs>
<linearGradient id="paint0_linear" x1="-2.29136" y1="61.1434" x2="33.1702" y2="18.9148" gradientUnits="userSpaceOnUse">
<stop stop-color="#315EFF"/>
<stop offset="1" stop-color="#C300D3"/>
</linearGradient>
<linearGradient id="paint1_linear" x1="-2.30029" y1="68.7061" x2="82.9094" y2="61.9409" gradientUnits="userSpaceOnUse">
<stop stop-color="#315EFF"/>
<stop offset="1" stop-color="#C300D3"/>
</linearGradient>
<linearGradient id="paint2_linear" x1="21.4418" y1="52.8204" x2="61.5082" y2="51.5452" gradientUnits="userSpaceOnUse">
<stop stop-color="#315EFF"/>
<stop offset="1" stop-color="#C300D3"/>
</linearGradient>
</defs>
</svg>
