<svg width="61" height="61" viewBox="0 0 61 61" fill="none" xmlns="http://www.w3.org/2000/svg">
<path fill-rule="evenodd" clip-rule="evenodd" d="M0.849094 4.15156C3.54248 2.88862 7.46494 1.70583 10.6009 2.06508C12.1429 2.24172 13.4045 2.77932 14.2768 3.76926C15.1473 4.75729 15.7532 6.33582 15.7015 8.84599L17.7011 8.88721C17.7597 6.04457 17.0759 3.92075 15.7774 2.44705C14.4805 0.975254 12.6937 0.291745 10.8286 0.0780776C7.15041 -0.343285 2.82415 1.0165 0 2.34075L0.849094 4.15156ZM7.77121 16.1958L9.68643 12.9169L6.40466 14.8272C4.68477 15.8283 1.55435 18.1611 0.228625 19.1811L1.44824 20.7662C2.27572 20.1295 3.74651 19.028 5.12536 18.0602C4.89948 19.8486 5.14125 21.7839 5.51707 23.4997C6.1238 26.2696 7.15347 28.7818 7.65139 29.886L7.69492 29.9825L7.75771 30.0678C9.3753 32.2648 10.5775 35.3725 11.4648 38.4347C12.2705 41.2158 12.7938 43.8749 13.1428 45.6487L13.149 45.6802C11.529 47.8282 10.9902 49.8045 11.2086 51.5772C11.4364 53.4254 12.465 54.8605 13.5222 55.8861L13.7881 56.1441L14.1579 56.1665C18.5583 56.4333 21.2465 56.7641 23.2628 57.2451C25.2514 57.7195 26.6165 58.3467 28.3769 59.2664L28.4633 59.3115L28.5568 59.3391C30.1979 59.8236 31.5323 60.0469 32.5984 60.0657C33.6493 60.0842 34.5301 59.9054 35.1764 59.4873C35.8695 59.0391 36.2355 58.3441 36.2014 57.5825C36.1698 56.8776 35.8043 56.2492 35.3297 55.7888C35.075 55.5417 34.1674 54.8251 33.0257 53.9237L33.0256 53.9236L33.0202 53.9193L32.8069 53.7509C31.6588 52.8446 30.2339 51.7196 28.7789 50.5434C27.2313 49.2922 25.6583 47.9898 24.3557 46.8376C23.2407 45.8513 22.3805 45.0237 21.8913 44.4489L21.8934 44.4167L21.8961 44.3709C21.9091 44.1327 21.9126 43.8347 21.9091 43.4927C21.902 42.806 21.8662 41.8862 21.8088 40.7969C21.6938 38.6154 21.4896 35.7118 21.2434 32.5422C20.7508 26.2009 20.0882 18.7682 19.6281 13.8584L17.6369 14.045C18.0964 18.9487 18.7579 26.3701 19.2494 32.6971C19.4952 35.8617 19.6979 38.7458 19.8116 40.9022C19.8685 41.982 19.9026 42.8688 19.9092 43.5132C19.9125 43.8369 19.9087 44.0857 19.8991 44.2613C19.8951 44.3333 19.8906 44.3843 19.8867 44.4178L19.7028 44.864L20.0286 45.3155C20.5864 46.0886 21.7225 47.1786 23.0306 48.3356C24.366 49.5169 25.9656 50.8407 27.5216 52.0987C28.9858 53.2825 30.4191 54.414 31.5661 55.3195L31.7808 55.489C32.9987 56.4506 33.7783 57.0703 33.937 57.2243C34.1521 57.4329 34.2005 57.6075 34.2034 57.6721L34.2038 57.6746C34.2061 57.6868 34.214 57.728 34.0903 57.808C33.909 57.9252 33.4794 58.0809 32.6336 58.066C31.8198 58.0517 30.7008 57.8803 29.2154 57.448C27.4277 56.5171 25.9098 55.8204 23.7269 55.2997C21.5998 54.7922 18.8708 54.4585 14.6614 54.1938C13.9087 53.3954 13.3302 52.4407 13.1936 51.3325C13.0453 50.1293 13.3949 48.5518 14.9973 46.562L15.2902 46.1983L15.1994 45.7403C15.1695 45.5895 15.138 45.4292 15.1047 45.26C14.7564 43.489 14.2173 40.7481 13.3858 37.8782C12.4904 34.7879 11.2291 31.448 9.43251 28.9699C8.95081 27.8886 8.02003 25.5794 7.47075 23.0717C6.89046 20.4225 6.80498 17.85 7.77121 16.1958ZM19.8809 44.4579C19.8808 44.458 19.8812 44.4551 19.8824 44.4497C19.8815 44.4552 19.881 44.4578 19.8809 44.4579ZM50.6659 12.9774C51.0774 13.0811 51.4488 13.2065 51.7112 13.3685L51.7668 13.4028L51.8176 13.4442C52.9762 14.3884 55.8791 16.8742 58.3299 19.3535C59.1336 19.9669 59.7154 20.6329 59.9683 21.4036C60.2417 22.2368 60.0749 23.014 59.7334 23.6876C59.4073 24.3309 58.8929 24.9398 58.3634 25.5108C58.1053 25.7892 57.8271 26.0755 57.5472 26.3637L57.5471 26.3637L57.5469 26.3639L57.5074 26.4046C57.2111 26.7095 56.9104 27.0197 56.6089 27.3447L56.5154 27.4455L56.3982 27.5173C54.7497 28.5274 54.7774 29.9548 54.906 30.404L54.9173 30.4434L54.9253 30.4836C55.198 31.8505 55.9634 35.4396 56.8377 38.8356C57.8178 41.9699 57.8682 44.0599 57.2244 45.5461C56.5838 47.0247 55.3433 47.6715 54.4788 48.1221L54.4076 48.1593L54.2812 48.2253L54.1414 48.2534C52.9169 48.4992 51.8928 47.988 51.1258 47.2194C50.3819 46.4739 49.8047 45.424 49.3544 44.3321C48.5766 42.4461 48.0792 40.1887 47.8193 38.4408H47.5652V37.5081C47.5005 37.4058 47.4293 37.3033 47.3553 37.2115C47.2894 37.1297 47.2344 37.0729 47.1936 37.0364C46.2425 37.0615 45.5088 37.0199 44.943 36.9087C44.3495 36.792 43.8249 36.5763 43.4558 36.1617C43.3219 36.0112 43.226 35.8538 43.1567 35.7004C42.9633 35.4318 42.8441 35.1721 42.7675 35.005C42.7451 34.9562 42.7263 34.9153 42.7104 34.8844L42.6358 34.7398L42.611 34.579C42.4945 33.826 42.6333 33.1389 43.0431 32.5839C43.3234 32.2043 43.6887 31.9432 44.064 31.7633C44.4075 31.5385 44.7766 31.4078 45.11 31.3288C45.4373 31.2512 45.7652 31.2153 46.057 31.198C45.9922 31.0919 45.9246 31.016 45.8651 30.9615C45.6674 30.7803 45.4581 30.7425 45.3924 30.7425H45.3621L45.3319 30.7407C44.6404 30.6987 41.1971 30.6353 33.142 30.7422C32.3104 30.7734 31.589 30.589 30.9898 30.2226C30.3932 29.8578 29.9756 29.3483 29.6903 28.8178C29.3495 28.1844 29.1782 27.4878 29.1091 26.8617H26.3569H25.3569V25.8617V17.8325V16.7189L26.4641 16.8383C26.7472 16.8688 27.6601 16.9177 29.0694 16.8746C29.2197 15.6179 29.9506 14.7305 30.4445 14.3578L30.6564 14.1979L30.9197 14.1642L38.2305 13.2275L38.4847 15.2113L31.493 16.1071C31.2609 16.3784 30.9509 16.9314 31.0689 17.6759L31.0812 17.7537V17.8325V25.8617V25.896L31.0789 25.9303C31.0412 26.4792 31.1294 27.2714 31.4516 27.8703C31.6054 28.1562 31.7982 28.3726 32.0332 28.5163C32.2623 28.6564 32.589 28.763 33.0755 28.7433L33.0891 28.7428L33.1026 28.7426C41.0613 28.6368 44.5956 28.6957 45.4263 28.7428C45.954 28.7512 46.638 28.957 47.2164 29.487C47.8309 30.0501 48.2542 30.9113 48.3219 32.0941L48.3277 32.1956L48.4299 32.1693L49.5335 36.4516L49.5652 36.5744V36.7011V36.9899C49.5806 37.0211 49.595 37.0511 49.6085 37.0798L49.6772 37.2265L49.6961 37.3874C49.8393 38.607 50.132 40.2291 50.5819 41.7725C52.665 40.067 53.8575 38.1453 54.3408 37.0795C53.7079 34.4453 53.1923 32.016 52.9711 30.9106C52.6614 29.7564 52.8344 27.4287 55.2331 25.8874C55.5214 25.5791 55.8055 25.2862 56.0729 25.011L56.106 24.9768L56.1061 24.9768L56.1071 24.9758L56.1077 24.9751L56.1083 24.9746L56.1083 24.9745C56.3929 24.6815 56.6556 24.4111 56.8969 24.1509C57.4105 23.597 57.7583 23.1604 57.9495 22.7833C58.1253 22.4366 58.1308 22.2185 58.068 22.0272C57.9911 21.7927 57.7512 21.4189 57.0691 20.9076L57.0093 20.8628L56.9569 20.8095C54.6157 18.435 51.8132 16.0261 50.6317 15.058C50.5764 15.0349 50.438 14.9825 50.1773 14.9168C49.8361 14.8309 49.3451 14.7367 48.6782 14.6528C47.3453 14.4852 45.3488 14.3634 42.5144 14.4163L42.4771 12.4166C45.3808 12.3624 47.4766 12.486 48.9277 12.6685C49.6529 12.7597 50.2268 12.8668 50.6659 12.9774ZM47.0403 34.7915L46.6687 33.3497C46.1482 33.3135 45.5701 33.3426 45.1314 33.4863C45.11 33.4933 45.0894 33.5005 45.0696 33.5077C45.0628 33.5142 45.0564 33.5208 45.0503 33.5274C44.989 33.5935 44.8952 33.7305 44.8779 34.0513C44.9298 34.2998 44.9477 34.557 44.9569 34.6895L44.9569 34.6898L44.9575 34.6981C45.1521 34.8012 45.6757 34.9487 47.0403 34.7915ZM52.5416 45.8067C52.0985 45.3627 51.6718 44.66 51.2846 43.7622C52.9637 42.503 54.2012 41.0831 55.0525 39.84C55.8527 42.5634 55.7264 43.9728 55.3892 44.751C55.0658 45.4976 54.4758 45.8625 53.6273 46.3101C53.2904 46.3407 52.9446 46.2107 52.5416 45.8067ZM29.0812 18.8752C28.4007 18.8952 27.8211 18.895 27.3569 18.8849V24.8617H29.0812V18.8752ZM47.136 36.9917C47.136 36.9916 47.1378 36.9925 47.1415 36.995C47.1378 36.993 47.1359 36.9918 47.136 36.9917ZM45.964 19.6296L47.4816 24.0456L49.373 23.3956L47.8555 18.9796L45.964 19.6296ZM42.2543 23.6834L40.7367 19.8026L42.5994 19.0742L44.117 22.955L42.2543 23.6834Z" fill="url(#paint0_linear)"/>
<defs>
<linearGradient id="paint0_linear" x1="-2.37826" y1="96.6932" x2="86.1441" y2="93.2912" gradientUnits="userSpaceOnUse">
<stop stop-color="#315EFF"/>
<stop offset="1" stop-color="#C300D3"/>
</linearGradient>
</defs>
</svg>
