<svg width="35" height="29" viewBox="0 0 35 29" fill="none" xmlns="http://www.w3.org/2000/svg">
<path d="M15.2605 16.5788C15.4018 16.579 15.5377 16.5241 15.6391 16.4257C18.5766 13.6011 21.7273 10.4846 23.344 8.87813C23.6437 8.57887 23.9996 8.34173 24.3911 8.18032C24.7827 8.0189 25.2023 7.93639 25.6258 7.93751C25.6263 7.93753 25.6268 7.93745 25.6272 7.93729C25.6276 7.93712 25.628 7.93687 25.6283 7.93655C25.6286 7.93623 25.6289 7.93584 25.629 7.93542C25.6292 7.935 25.6293 7.93454 25.6293 7.93409C25.6293 7.9348 25.6292 7.93552 25.6288 7.93613C25.6284 7.93674 25.6279 7.93722 25.6272 7.93751C25.6602 7.93965 25.6931 7.94376 25.7256 7.94981C26.0615 8.0159 26.3926 8.10405 26.7169 8.21368C26.9014 8.27384 27.0777 8.33673 27.2132 8.39141C27.2815 8.41876 27.341 8.44474 27.3854 8.46661C27.4046 8.4755 27.423 8.48507 27.4374 8.49327C27.4448 8.49737 27.4497 8.50011 27.4524 8.50147C27.4537 8.50216 27.4545 8.50284 27.4551 8.50284L28.1052 8.91696C28.1317 8.93753 28.16 8.95561 28.1899 8.97097L34.1592 12.7739C34.2198 12.8125 34.2874 12.8388 34.3581 12.8513C34.4289 12.8638 34.5014 12.8622 34.5715 12.8466C34.6417 12.8311 34.7081 12.8019 34.7669 12.7607C34.8258 12.7194 34.8759 12.667 34.9145 12.6065C34.9531 12.5459 34.9794 12.4783 34.9919 12.4075C35.0044 12.3367 35.0028 12.2642 34.9872 12.1941C34.9717 12.1239 34.9425 12.0575 34.9013 11.9987C34.86 11.9398 34.8076 11.8897 34.747 11.8511L28.878 8.11319L27.8515 5.54691C27.8248 5.48023 27.7853 5.41946 27.7351 5.36806C27.685 5.31666 27.6252 5.27564 27.5592 5.24735C27.4931 5.21906 27.4222 5.20404 27.3504 5.20317C27.2786 5.20229 27.2073 5.21556 27.1406 5.24223C27.0739 5.26891 27.0132 5.30845 26.9618 5.35861C26.9104 5.40877 26.8693 5.46856 26.8411 5.53457C26.8128 5.60058 26.7978 5.67152 26.7969 5.74333C26.796 5.81514 26.8093 5.88642 26.8359 5.9531L27.3666 7.27982C27.1687 7.20832 26.9454 7.13559 26.7059 7.06524C26.4885 7.00167 26.2924 6.9504 26.1228 6.91349C25.96 6.87305 25.7935 6.84968 25.6258 6.84376C24.4818 6.84344 23.3841 7.29617 22.5729 8.10294C20.9617 9.70391 17.8199 12.8115 14.8818 15.6375C14.7774 15.7381 14.7172 15.8759 14.7142 16.0208C14.7113 16.1657 14.7659 16.3059 14.8661 16.4107C14.9169 16.4641 14.9781 16.5066 15.0459 16.5355C15.1137 16.5644 15.1868 16.5792 15.2605 16.5788Z" fill="url(#paint0_linear)"/>
<path d="M13.6774 18.0918C13.7844 18.092 13.889 18.0607 13.9784 18.002C14.0678 17.9432 14.138 17.8595 14.1802 17.7612C14.2224 17.6629 14.2348 17.5544 14.2159 17.4491C14.197 17.3438 14.1477 17.2464 14.0739 17.1689C14.0116 17.1032 13.9339 17.0539 13.8479 17.0255C13.7619 16.9972 13.6701 16.9906 13.5809 17.0065C13.4917 17.0224 13.4079 17.0602 13.3369 17.1165C13.2659 17.1728 13.2101 17.2458 13.1743 17.329C13.1385 17.4123 13.124 17.5031 13.132 17.5933C13.1401 17.6836 13.1704 17.7704 13.2202 17.846C13.2701 17.9217 13.338 17.9837 13.4178 18.0266C13.4976 18.0695 13.5868 18.0919 13.6774 18.0918Z" fill="url(#paint1_linear)"/>
<path d="M34.8482 21.7065C33.1392 19.9182 31.6435 18.2926 30.4042 16.8749C29.2503 15.5576 27.7197 13.729 26.9794 12.4985C26.8448 12.2764 26.6559 12.0922 26.4305 11.9632C26.0943 11.7716 25.6973 11.7168 25.3219 11.8101C24.9464 11.9034 24.6212 12.1376 24.4139 12.4643C24.0721 13.0009 23.3967 14.0516 22.7076 15.0586C22.333 15.6068 21.9987 16.0771 21.7137 16.4579C21.4764 16.7862 21.2184 17.099 20.9412 17.3944C20.5003 17.8374 19.7969 18.3268 18.8501 18.8491C18.0769 19.2777 17.2136 19.6926 16.3795 20.0939C15.8088 20.368 15.2701 20.6271 14.7602 20.8889C14.0068 21.2765 13.488 21.5828 13.0785 21.8822C12.5919 22.2459 12.2322 22.5883 12.0593 23.0771C11.9191 23.4989 11.8139 23.8824 11.721 24.2208C11.6253 24.5667 11.5432 24.8654 11.4509 25.1087C11.381 25.3134 11.2792 25.5058 11.1495 25.6789C11.0272 25.8333 10.8709 25.9575 10.6928 26.0419C10.5326 26.1116 10.3588 26.1443 10.1842 26.1376H10.165C9.63389 26.1376 8.979 25.9256 8.72197 25.8347C7.98388 25.575 7.19202 25.5066 6.42031 25.6358C6.37818 25.6434 6.33694 25.6553 6.29727 25.6713C5.68979 25.9282 5.03672 26.0598 4.37717 26.0583C3.71762 26.0567 3.06517 25.9221 2.45889 25.6625L1.76846 25.3658C1.51316 25.2572 1.30797 25.0566 1.19356 24.8039L4.45225 24.3383C4.49442 24.3323 4.53573 24.3213 4.57529 24.3055H4.57666C4.68733 24.2618 5.69434 23.8619 6.86465 23.3307C7.579 23.0074 8.20244 22.7025 8.71856 22.4256C9.41233 22.051 9.86904 21.7591 10.1999 21.4775C10.7748 20.9846 11.5329 20.301 12.4537 19.4459C12.5075 19.3973 12.551 19.3385 12.5819 19.2729C12.6127 19.2074 12.6303 19.1363 12.6334 19.064C12.6366 18.9916 12.6253 18.9193 12.6003 18.8513C12.5753 18.7833 12.537 18.7209 12.4877 18.6678C12.4384 18.6148 12.379 18.572 12.313 18.5421C12.247 18.5121 12.1758 18.4956 12.1033 18.4935C12.0309 18.4913 11.9588 18.5036 11.8911 18.5295C11.8235 18.5555 11.7617 18.5946 11.7093 18.6447C10.8001 19.4889 10.0529 20.1629 9.4876 20.6476C9.24356 20.8588 8.77454 21.1555 8.20169 21.4618C7.32949 21.9294 6.28291 22.4003 5.55762 22.7134C5.13714 22.8946 4.78584 23.0402 4.56497 23.1304C4.41663 23.1913 4.30247 23.2371 4.23411 23.2644L0.46963 23.8024C0.339224 23.8208 0.219878 23.8858 0.133579 23.9853C0.0472791 24.0848 -0.000160166 24.2121 6.53279e-07 24.3438C-0.000331793 24.7756 0.126226 25.198 0.363948 25.5585C0.601669 25.9189 0.940074 26.2016 1.33711 26.3713L2.02754 26.6673C2.75862 26.9807 3.54475 27.1454 4.34012 27.1518C5.13549 27.1583 5.92418 27.0064 6.66025 26.7049C7.23169 26.6197 7.81531 26.6753 8.36035 26.867C8.80872 27.0221 9.48486 27.2286 10.1767 27.2313C10.5237 27.2403 10.868 27.1682 11.1822 27.0208C11.5031 26.864 11.7849 26.6378 12.0073 26.3584C12.3382 25.9373 12.5029 25.4471 12.6308 25.0212C12.6826 24.8469 12.7319 24.6692 12.7839 24.4812C12.8761 24.1462 12.9712 23.7997 13.097 23.423C13.1188 23.3492 13.2098 23.2036 13.3943 23.034C13.6903 22.7544 14.2317 22.4038 14.9597 22.0189C15.5216 21.7195 16.1587 21.4132 16.8334 21.0892C17.3865 20.8233 17.9579 20.5485 18.5151 20.2641C19.6286 19.694 20.8795 18.9981 21.7143 18.1682C22.0292 17.8368 22.3214 17.4844 22.5886 17.1134C23.5272 15.8604 24.7133 14.0304 25.3367 13.0508C25.3748 12.991 25.4276 12.942 25.4901 12.9085C25.5526 12.875 25.6227 12.8581 25.6936 12.8595C25.7645 12.8609 25.8338 12.8805 25.895 12.9164C25.9561 12.9523 26.007 13.0033 26.0428 13.0645C26.6819 14.12 27.8393 15.602 29.5804 17.5954C30.828 19.022 32.3346 20.6592 34.0579 22.4626C34.1073 22.5158 34.1667 22.5587 34.2327 22.5887C34.2988 22.6187 34.3701 22.6353 34.4426 22.6375C34.5152 22.6397 34.5874 22.6274 34.6551 22.6014C34.7229 22.5754 34.7847 22.5362 34.8372 22.486C34.8896 22.4358 34.9315 22.3758 34.9605 22.3092C34.9894 22.2427 35.0049 22.1711 35.0059 22.0985C35.0069 22.026 34.9935 21.954 34.9664 21.8867C34.9393 21.8194 34.8991 21.7581 34.8481 21.7065H34.8482Z" fill="url(#paint2_linear)"/>
<path d="M22.4219 6.84375C22.5669 6.84375 22.706 6.78613 22.8086 6.68357C22.9111 6.58102 22.9688 6.44192 22.9688 6.29688V5.20312C22.9688 3.17921 24.3 1.92188 26.4428 1.92188C26.9409 1.92182 27.4323 2.0378 27.8778 2.26064C28.3234 2.48347 28.7109 2.80703 29.0096 3.20566L34.0157 9.88027C34.1027 9.99631 34.2322 10.073 34.3758 10.0935C34.5194 10.114 34.6652 10.0767 34.7813 9.98965C34.8973 9.90262 34.974 9.77307 34.9945 9.62949C35.015 9.48591 34.9777 9.34006 34.8907 9.22402L29.8847 2.54941C29.484 2.01495 28.9644 1.58115 28.367 1.28238C27.7695 0.983609 27.1107 0.828083 26.4428 0.828125C23.7107 0.828125 21.875 2.58633 21.875 5.20312V6.29688C21.875 6.44192 21.9326 6.58102 22.0352 6.68357C22.1377 6.78613 22.2768 6.84375 22.4219 6.84375Z" fill="url(#paint3_linear)"/>
<path d="M26.7969 15.5938C26.7969 15.4487 26.7392 15.3096 26.6367 15.2071C26.5341 15.1045 26.395 15.0469 26.25 15.0469C26.1049 15.0469 25.9658 15.1045 25.8633 15.2071C25.7607 15.3096 25.7031 15.4487 25.7031 15.5938V18.3281C25.7031 18.3999 25.7173 18.4711 25.7448 18.5374C25.7723 18.6038 25.8125 18.6641 25.8633 18.7148L25.9424 18.793C27.0846 19.9233 27.6645 20.791 27.666 21.3719C27.6688 21.4458 27.6558 21.5195 27.6279 21.5881C27.5999 21.6566 27.5577 21.7184 27.504 21.7693C27.2244 22.0451 26.9128 22.2866 26.5758 22.4885C26.1729 22.7327 25.8 23.0235 25.4651 23.3549C25.0486 23.7715 24.6808 24.328 24.2914 24.9172C23.9223 25.4752 23.5414 26.052 23.1449 26.4485C22.3055 27.2879 21.3004 27.1601 20.6217 26.917L21.7149 25.8239C21.7704 25.7684 21.8133 25.7016 21.8406 25.6281L23.4812 21.2257C23.5039 21.1646 23.5155 21.0999 23.5154 21.0347V19.4219C23.5154 19.2768 23.4578 19.1377 23.3552 19.0352C23.2527 18.9326 23.1136 18.875 22.9685 18.875C22.8235 18.875 22.6844 18.9326 22.5818 19.0352C22.4793 19.1377 22.4216 19.2768 22.4216 19.4219V20.9364L20.857 25.135L19.3006 26.6914C19.2418 26.7502 19.1972 26.8216 19.1701 26.9002C19.1431 26.9787 19.1343 27.0625 19.1445 27.1449C19.1546 27.2274 19.1835 27.3065 19.2288 27.3762C19.2741 27.4459 19.3346 27.5043 19.4059 27.5471C20.0368 27.9256 20.813 28.1933 21.606 28.1933C22.037 28.1961 22.4642 28.1116 22.8616 27.9447C23.259 27.7777 23.6184 27.532 23.9181 27.2222C24.3927 26.7477 24.8049 26.1238 25.2036 25.5205C25.5617 24.9787 25.8998 24.467 26.2383 24.1286C26.5179 23.8527 26.8295 23.6112 27.1664 23.4093C27.5694 23.1652 27.9422 22.8744 28.2771 22.543C28.4324 22.3899 28.5551 22.207 28.638 22.0053C28.7209 21.8037 28.7622 21.5873 28.7595 21.3693C28.7565 20.2152 27.6628 18.9671 26.7966 18.1006L26.7969 15.5938Z" fill="url(#paint4_linear)"/>
<defs>
<linearGradient id="paint0_linear" x1="13.9114" y1="23.5152" x2="43.6931" y2="21.4755" gradientUnits="userSpaceOnUse">
<stop stop-color="#315EFF"/>
<stop offset="1" stop-color="#C300D3"/>
</linearGradient>
<linearGradient id="paint1_linear" x1="13.0866" y1="18.7587" x2="14.6988" y2="18.6967" gradientUnits="userSpaceOnUse">
<stop stop-color="#315EFF"/>
<stop offset="1" stop-color="#C300D3"/>
</linearGradient>
<linearGradient id="paint2_linear" x1="-1.38513" y1="36.6628" x2="49.8604" y2="32.2081" gradientUnits="userSpaceOnUse">
<stop stop-color="#315EFF"/>
<stop offset="1" stop-color="#C300D3"/>
</linearGradient>
<linearGradient id="paint3_linear" x1="21.3557" y1="15.752" x2="40.6576" y2="14.7025" gradientUnits="userSpaceOnUse">
<stop stop-color="#315EFF"/>
<stop offset="1" stop-color="#C300D3"/>
</linearGradient>
<linearGradient id="paint4_linear" x1="18.7598" y1="36.2095" x2="32.9367" y2="35.8111" gradientUnits="userSpaceOnUse">
<stop stop-color="#315EFF"/>
<stop offset="1" stop-color="#C300D3"/>
</linearGradient>
</defs>
</svg>
