<svg width="32" height="16" viewBox="0 0 32 16" fill="none" xmlns="http://www.w3.org/2000/svg">
<path d="M31.6334 7.11524C31.633 7.11487 31.6327 7.11443 31.6323 7.11405L25.1008 0.614057C24.6114 0.12712 23.82 0.128932 23.3329 0.618306C22.8459 1.10762 22.8478 1.89906 23.3371 2.38606L27.7224 6.75005L1.25 6.75005C0.559625 6.75005 0 7.30968 0 8.00005C0 8.69043 0.559625 9.25005 1.25 9.25005L27.7223 9.25005L23.3372 13.614C22.8479 14.101 22.846 14.8925 23.333 15.3818C23.8201 15.8712 24.6116 15.8729 25.1008 15.386L31.6323 8.88605C31.6327 8.88568 31.633 8.88524 31.6334 8.88486C32.123 8.39624 32.1214 7.60224 31.6334 7.11524Z" fill="url(#paint0_linear)"/>
<defs>
<linearGradient id="paint0_linear" x1="-1.26619" y1="25.2012" x2="45.638" y2="21.4821" gradientUnits="userSpaceOnUse">
<stop stop-color="#315EFF"/>
<stop offset="1" stop-color="#C300D3"/>
</linearGradient>
</defs>
</svg>
