<svg width="60" height="40" viewBox="0 0 60 40" fill="none" xmlns="http://www.w3.org/2000/svg">
<path d="M11.7187 23.516C9.3205 23.516 6.36585 23.9622 4.79179 27.4418C4.72311 27.5935 4.68761 27.7582 4.68761 27.9248V30.9845C4.68761 31.1349 4.71655 31.2841 4.77304 31.4236C5.79515 33.9525 8.52632 35.2346 12.8907 35.2346C16.1491 35.2346 18.9002 34.4933 21.0677 33.0313C21.6418 32.644 22.5375 31.9173 23.1718 31.1441C23.3437 30.9345 23.4377 30.6718 23.4377 30.4008V28.547C23.4377 28.2474 23.3231 27.9594 23.1173 27.7419C20.5442 25.0209 14.7443 23.516 11.7187 23.516ZM21.0937 29.9568C20.6726 30.3988 20.1472 30.8251 19.757 31.0884C17.9837 32.2844 15.6735 32.891 12.8906 32.891C10.6873 32.891 7.92116 32.5107 7.03124 30.7345V28.189C7.86843 26.517 9.20694 25.8597 11.7187 25.8597C14.1369 25.8597 18.9198 27.117 21.0937 29.0433V29.9568Z" fill="url(#paint0_linear)"/>
<path d="M59.9328 26.6406C59.0164 24.0511 57.5291 22.0814 55.5294 20.7671C54.9189 18.9062 54.6093 16.6793 54.6093 14.1402C54.6093 6.38618 48.3008 0.0777588 40.5468 0.0777588H19.4532C11.6992 0.0777588 5.39073 6.38618 5.39073 14.1402C5.39073 16.6793 5.08112 18.9061 4.47058 20.7669C2.47089 22.0814 0.983553 24.0511 0.0671483 26.6406C0.0227343 26.7662 0 26.8984 0 27.0315V31.719C0 31.8214 0.0133593 31.9234 0.0399609 32.0223C0.515038 33.7953 1.41445 35.3229 2.71347 36.5625C5.0496 38.7917 8.47369 39.9221 12.8906 39.9221C17.2682 39.9221 21.0139 38.8331 24.0234 36.6853C26.0313 35.2523 27.1325 33.7521 27.6522 32.8909H32.348C32.8677 33.7521 33.969 35.2523 35.9768 36.6853C38.9862 38.8331 42.7319 39.9221 47.1095 39.9221C51.5264 39.9221 54.9505 38.7917 57.2866 36.5625C58.5855 35.3229 59.4851 33.7953 59.9602 32.0223C59.9868 31.9234 60.0001 31.8214 60.0001 31.719V27.0315C60 26.8984 59.9773 26.7662 59.9328 26.6406ZM19.4532 2.42162H40.5468C47.0085 2.42162 52.2655 7.67864 52.2655 14.1403C52.2655 14.1954 52.2666 14.2496 52.2669 14.3044C50.5006 8.76274 45.5824 4.7656 39.8071 4.7656H35.2731C34.6259 4.7656 34.1013 5.29037 34.1013 5.93747C34.1013 6.58458 34.6259 7.10935 35.2731 7.10935H39.8071C45.7703 7.10935 50.6217 12.3664 50.6217 18.8281C50.6217 18.8822 50.6231 18.9355 50.6235 18.9896C49.8784 18.8837 49.0982 18.8284 48.2815 18.8284C43.6855 18.8284 35.6782 21.0674 32.4025 25.8597H27.5978C24.322 21.0674 16.3148 18.8284 11.7188 18.8284C10.9024 18.8284 10.1225 18.8836 9.37768 18.9894C9.37791 18.9357 9.37861 18.882 9.37861 18.8281C9.37861 12.3664 14.23 7.10935 20.1932 7.10935H24.7265C25.3737 7.10935 25.8984 6.58458 25.8984 5.93747C25.8984 5.29037 25.3737 4.7656 24.7265 4.7656H20.1932C14.4179 4.7656 9.49979 8.76274 7.73342 14.3044C7.73366 14.2496 7.73483 14.1954 7.73483 14.1403C7.73448 7.67864 12.9915 2.42162 19.4532 2.42162ZM28.1249 28.2034H31.8751V30.5472H28.1249V28.2034ZM22.6617 34.7776C20.0577 36.6361 16.7702 37.5784 12.8905 37.5784C5.27518 37.5784 3.01277 33.874 2.34363 31.5592V27.2372C3.85663 23.1564 6.9253 21.1722 11.7186 21.1722C13.9995 21.1722 16.9975 21.805 19.5427 22.8237C21.6167 23.6538 24.3448 25.1057 25.7811 27.359V31.4515C25.4067 32.1596 24.4061 33.5327 22.6617 34.7776ZM57.6562 31.5592C56.9872 33.874 54.7247 37.5784 47.1094 37.5784C43.2298 37.5784 39.9422 36.6361 37.3382 34.7776C35.5939 33.5327 34.5933 32.1596 34.2187 31.4514V27.359C35.655 25.1056 38.383 23.6538 40.457 22.8237C43.0022 21.8051 46.0002 21.1722 48.2813 21.1722C53.0745 21.1722 56.1431 23.1564 57.6561 27.2372V31.5592H57.6562Z" fill="url(#paint1_linear)"/>
<path d="M48.2815 23.516C45.256 23.516 39.4559 25.0209 36.883 27.7421C36.6772 27.9596 36.5626 28.2477 36.5626 28.5472V30.401C36.5626 30.672 36.6566 30.9348 36.8285 31.1443C37.4629 31.9175 38.3584 32.6442 38.9326 33.0315C41.1001 34.4935 43.8512 35.2349 47.1096 35.2349C51.474 35.2349 54.2052 33.9527 55.2273 31.4238C55.2837 31.2843 55.3128 31.1352 55.3128 30.9847V27.9251C55.3128 27.7584 55.2772 27.5938 55.2086 27.442C53.6343 23.9622 50.6796 23.516 48.2815 23.516ZM52.9689 30.7345C52.079 32.5108 49.3129 32.891 47.1095 32.891C44.3267 32.891 42.0165 32.2844 40.2431 31.0884C39.8528 30.8251 39.3274 30.3986 38.9063 29.9568V29.0433C41.0802 27.117 45.8632 25.8597 48.2814 25.8597C50.7931 25.8597 52.1316 26.517 52.9689 28.189V30.7345Z" fill="url(#paint2_linear)"/>
<path d="M30 7.10938C30.6472 7.10938 31.1719 6.58461 31.1719 5.9375C31.1719 5.29039 30.6472 4.76562 30 4.76562H29.9992C29.3519 4.76562 28.8278 5.29039 28.8278 5.9375C28.8278 6.58461 29.3529 7.10938 30 7.10938Z" fill="url(#paint3_linear)"/>
<defs>
<linearGradient id="paint0_linear" x1="3.9457" y1="42.3801" x2="31.4975" y2="40.687" gradientUnits="userSpaceOnUse">
<stop stop-color="#315EFF"/>
<stop offset="1" stop-color="#C300D3"/>
</linearGradient>
<linearGradient id="paint1_linear" x1="-2.37411" y1="64.2175" x2="85.8292" y2="59.1162" gradientUnits="userSpaceOnUse">
<stop stop-color="#315EFF"/>
<stop offset="1" stop-color="#C300D3"/>
</linearGradient>
<linearGradient id="paint2_linear" x1="35.8207" y1="42.3805" x2="63.3725" y2="40.6874" gradientUnits="userSpaceOnUse">
<stop stop-color="#315EFF"/>
<stop offset="1" stop-color="#C300D3"/>
</linearGradient>
<linearGradient id="paint3_linear" x1="28.735" y1="8.53849" x2="32.1874" y2="8.40587" gradientUnits="userSpaceOnUse">
<stop stop-color="#315EFF"/>
<stop offset="1" stop-color="#C300D3"/>
</linearGradient>
</defs>
</svg>
