<svg width="60" height="60" viewBox="0 0 60 60" fill="none" xmlns="http://www.w3.org/2000/svg">
<g clip-path="url(#clip0)">
<path d="M44.7653 0H15.2347C13.4953 0 12.0803 1.41516 12.0803 3.15457V13.6512C12.0803 15.3906 13.4954 16.8057 15.2347 16.8057H26.0456V24.4828H25.7225C24.1245 24.4828 22.8243 25.783 22.8243 27.3811V57.1018C22.8243 58.6999 24.1245 60.0001 25.7225 60.0001H34.2777C35.8758 60.0001 37.176 58.6999 37.176 57.1018V27.381C37.176 25.7829 35.8758 24.4827 34.2777 24.4827H33.9546V16.8056H44.7655C46.5049 16.8056 47.92 15.3905 47.92 13.6511V3.15457C47.9197 1.41516 46.5047 0 44.7653 0V0ZM14.424 13.6512V3.15457C14.424 2.7075 14.7878 2.34375 15.2347 2.34375H17.6427V14.4619H15.2347C14.7877 14.4619 14.424 14.0982 14.424 13.6512ZM19.9864 2.34375H40.0136V14.4619H19.9864V2.34375ZM34.8321 27.381V57.1017C34.8321 57.4075 34.5833 57.6562 34.2776 57.6562H25.7224C25.4167 57.6562 25.1679 57.4075 25.1679 57.1017V27.381C25.1679 27.0752 25.4167 26.8264 25.7224 26.8264H34.2776C34.5833 26.8264 34.8321 27.0752 34.8321 27.381ZM31.6107 24.4827H28.3894V16.8056H31.6107V24.4827ZM45.576 13.6512C45.576 14.0982 45.2123 14.462 44.7653 14.462H42.3573V2.34375H44.7653C45.2123 2.34375 45.576 2.7075 45.576 3.15457V13.6512Z" fill="url(#paint0_linear)"/>
<path d="M24.2902 7.12128H35.7097C36.357 7.12128 36.8816 6.59663 36.8816 5.9494C36.8816 5.30218 36.357 4.77753 35.7097 4.77753H24.2902C23.6429 4.77753 23.1183 5.30218 23.1183 5.9494C23.1183 6.59663 23.6429 7.12128 24.2902 7.12128Z" fill="url(#paint1_linear)"/>
<path d="M36.8817 10.8563C36.8817 10.209 36.3571 9.68439 35.7098 9.68439H24.2903C23.6431 9.68439 23.1184 10.209 23.1184 10.8563C23.1184 11.5035 23.6431 12.0281 24.2903 12.0281H35.7098C36.3571 12.0281 36.8817 11.5035 36.8817 10.8563Z" fill="url(#paint2_linear)"/>
<path d="M28.1599 34.6351H31.8401C32.4873 34.6351 33.0119 34.1105 33.0119 33.4633C33.0119 32.816 32.4873 32.2914 31.8401 32.2914H28.1599C27.5127 32.2914 26.988 32.816 26.988 33.4633C26.988 34.1105 27.5127 34.6351 28.1599 34.6351Z" fill="url(#paint3_linear)"/>
</g>
<defs>
<linearGradient id="paint0_linear" x1="10.6622" y1="96.5855" x2="63.4968" y2="95.3734" gradientUnits="userSpaceOnUse">
<stop stop-color="#315EFF"/>
<stop offset="1" stop-color="#C300D3"/>
</linearGradient>
<linearGradient id="paint1_linear" x1="22.5737" y1="8.55039" x2="41.8915" y2="4.19349" gradientUnits="userSpaceOnUse">
<stop stop-color="#315EFF"/>
<stop offset="1" stop-color="#C300D3"/>
</linearGradient>
<linearGradient id="paint2_linear" x1="22.5738" y1="13.4573" x2="41.8916" y2="9.10035" gradientUnits="userSpaceOnUse">
<stop stop-color="#315EFF"/>
<stop offset="1" stop-color="#C300D3"/>
</linearGradient>
<linearGradient id="paint3_linear" x1="26.7497" y1="36.0642" x2="35.549" y2="35.1956" gradientUnits="userSpaceOnUse">
<stop stop-color="#315EFF"/>
<stop offset="1" stop-color="#C300D3"/>
</linearGradient>
<clipPath id="clip0">
<rect width="60" height="60" fill="white"/>
</clipPath>
</defs>
</svg>
