<svg width="60" height="50" viewBox="0 0 60 50" fill="none" xmlns="http://www.w3.org/2000/svg">
<path d="M59.7301 36.9633C59.3726 36.3475 58.7342 35.9797 58.022 35.9797H56.8358V30.7533C56.8358 29.1741 55.551 27.8893 53.9719 27.8893H51.0486V19.1788C51.0486 17.5993 49.7636 16.3143 48.184 16.3143H40.5805C39.001 16.3143 37.7159 17.5993 37.7159 19.1788V27.8893H34.7933C33.2136 27.8893 31.9282 29.1741 31.9282 30.7533V32.6962C31.9282 33.1816 32.3215 33.5751 32.807 33.5751C33.2925 33.5751 33.6859 33.1816 33.6859 32.6962V30.7533C33.6859 30.1434 34.1827 29.6471 34.7933 29.6471H43.5037V35.9797H32.6848L21.6325 32.955C19.4944 32.3698 17.2863 32.073 15.0695 32.073H1.75777V25.503C1.75777 25.0176 1.36426 24.6241 0.878886 24.6241C0.393506 24.6241 0 25.0176 0 25.503V45.7031C0 46.1885 0.393506 46.582 0.878886 46.582C1.36426 46.582 1.75777 46.1885 1.75777 45.7031V33.8308H15.0694C17.1295 33.8308 19.1815 34.1065 21.1684 34.6504C21.3976 34.6823 32.3443 37.7689 32.5667 37.7375H58.022C58.2068 37.7552 58.287 37.8931 58.2106 38.0625L55.547 42.7248C53.6734 46.0041 50.1634 48.0412 46.3867 48.0412H42.7951C39.4444 48.0412 36.2624 46.4273 34.2829 43.7239C32.9836 41.9495 31.1056 40.6324 28.9948 40.0154L21.6508 37.8682C19.3834 37.2053 17.0361 36.8692 14.6738 36.8692H4.96348C4.4781 36.8692 4.08459 37.2627 4.08459 37.7481C4.08459 38.2334 4.4781 38.6269 4.96348 38.6269H14.6736C16.8689 38.6269 19.0504 38.9394 21.1575 39.5553L28.5014 41.7025C30.243 42.2116 31.7926 43.2984 32.8645 44.7624C35.1737 47.9162 38.886 49.799 42.7948 49.799H46.3864C50.7924 49.799 54.8872 47.4225 57.0728 43.5969L59.7366 38.9344C60.09 38.3161 60.0877 37.5792 59.7301 36.9633ZM39.4736 19.1788C39.4736 18.5686 39.9701 18.072 40.5804 18.072H45.0284C45.6387 18.072 46.1351 18.5686 46.1351 19.1788V20.0089C46.1351 20.4942 46.5284 20.8878 47.0139 20.8878C47.4994 20.8878 47.8928 20.4942 47.8928 20.0089V19.1788C47.8928 18.7866 47.8135 18.4128 47.6702 18.072C48.4231 17.9654 49.3016 18.3011 49.2907 19.1788V27.8892H47.8928V24.1315C47.8928 23.6462 47.4994 23.2527 47.0139 23.2527C46.5284 23.2527 46.1351 23.6462 46.1351 24.1315V27.8892H39.4734V19.1788H39.4736ZM45.2614 29.6471H53.9718C54.5817 29.6471 55.0779 30.1434 55.0779 30.7533V35.9797H45.2613V29.6471H45.2614Z" fill="url(#paint0_linear)"/>
<path d="M27.9738 15.8387C29.0907 16.9555 30.908 16.9555 32.0249 15.8387L37.4014 10.4623C38.5182 9.34541 38.5182 7.52799 37.4014 6.41122L32.0249 1.03479C30.9585 -0.076595 29.04 -0.0764778 27.9738 1.03479L22.5973 6.41122C21.486 7.47749 21.4861 9.39615 22.5973 10.4624L27.9738 15.8387ZM29.2166 2.27753C29.6285 1.84816 30.37 1.84805 30.7818 2.27753L36.1583 7.65397C36.5899 8.08556 36.5899 8.78773 36.1583 9.2192L33.9357 11.4418C33.7935 11.0949 33.5826 10.7761 33.3094 10.503L27.9329 5.12641C27.6555 4.84915 27.3349 4.64103 26.9927 4.50146L29.2166 2.27753ZM23.8402 7.65397L25.1247 6.3695C25.5561 5.9378 26.2583 5.93803 26.6899 6.3695L32.0663 11.7461C32.4956 12.1578 32.4957 12.8988 32.0668 13.3108L30.7818 14.5958C30.3502 15.0275 29.6481 15.0271 29.2166 14.5958L23.8402 9.21932C23.4107 8.80718 23.4108 8.06599 23.8402 7.65397Z" fill="url(#paint1_linear)"/>
<path d="M23.7265 27.1063C24.2075 27.1063 24.5974 26.7165 24.5974 26.2355C24.5974 25.7546 24.2075 25.3647 23.7265 25.3647C23.2456 25.3647 22.8557 25.7546 22.8557 26.2355C22.8557 26.7165 23.2456 27.1063 23.7265 27.1063Z" fill="url(#paint2_linear)"/>
<path d="M27.8621 25.503C28.343 25.503 28.7329 25.1131 28.7329 24.6322C28.7329 24.1512 28.343 23.7614 27.8621 23.7614C27.3812 23.7614 26.9913 24.1512 26.9913 24.6322C26.9913 25.1131 27.3812 25.503 27.8621 25.503Z" fill="url(#paint3_linear)"/>
<path d="M23.7265 20.5968C23.2456 20.5968 22.8557 20.9867 22.8557 21.4676C22.8557 21.9485 23.2456 22.3385 23.7265 22.3385C24.2075 22.3385 24.5974 21.9486 24.5974 21.4676C24.5975 20.9867 24.2076 20.5968 23.7265 20.5968Z" fill="url(#paint4_linear)"/>
<defs>
<linearGradient id="paint0_linear" x1="-2.3741" y1="70.2165" x2="85.7069" y2="64.1548" gradientUnits="userSpaceOnUse">
<stop stop-color="#315EFF"/>
<stop offset="1" stop-color="#C300D3"/>
</linearGradient>
<linearGradient id="paint1_linear" x1="21.112" y1="26.7221" x2="45.3765" y2="25.7901" gradientUnits="userSpaceOnUse">
<stop stop-color="#315EFF"/>
<stop offset="1" stop-color="#C300D3"/>
</linearGradient>
<linearGradient id="paint2_linear" x1="22.7868" y1="28.1683" x2="25.3519" y2="28.0698" gradientUnits="userSpaceOnUse">
<stop stop-color="#315EFF"/>
<stop offset="1" stop-color="#C300D3"/>
</linearGradient>
<linearGradient id="paint3_linear" x1="26.9224" y1="26.565" x2="29.4874" y2="26.4665" gradientUnits="userSpaceOnUse">
<stop stop-color="#315EFF"/>
<stop offset="1" stop-color="#C300D3"/>
</linearGradient>
<linearGradient id="paint4_linear" x1="22.7868" y1="23.4006" x2="25.3519" y2="23.3021" gradientUnits="userSpaceOnUse">
<stop stop-color="#315EFF"/>
<stop offset="1" stop-color="#C300D3"/>
</linearGradient>
</defs>
</svg>
