<svg width="60" height="60" viewBox="0 0 60 60" fill="none" xmlns="http://www.w3.org/2000/svg">
<g clip-path="url(#clip0)">
<path d="M59.916 33.8141C59.7081 33.3714 59.1809 33.1812 58.738 33.3885C56.1009 34.6257 51.2975 34.6257 48.6602 33.3885C45.9109 32.0987 41.5014 31.9385 38.3396 32.908V13.6218C42.6885 12.2873 44.9851 10.473 44.9851 8.36472C44.9851 6.20671 42.577 4.35656 38.021 3.01417C33.8606 1.78828 28.3457 1.11316 22.4925 1.11316C16.6392 1.11316 11.1244 1.78816 6.96398 3.01417C2.40809 4.35656 0 6.20671 0 8.36472C0 10.4725 2.29547 12.2864 6.64219 13.6208V46.3769C2.29395 47.7098 0 49.52 0 51.632C0 53.7914 2.40809 55.6425 6.96398 56.9855C11.1239 58.2116 16.6388 58.887 22.4926 58.887C28.3465 58.887 33.8613 58.2117 38.0212 56.9855C42.5771 55.6426 44.9852 53.7915 44.9852 51.632C44.9852 49.5206 42.6902 47.7103 38.3398 46.3769V43.7285C38.3398 43.725 38.3398 34.7784 38.3398 34.7784C41.0493 33.7597 45.4329 33.8309 47.908 34.9922C49.4776 35.7286 51.5885 36.0968 53.6993 36.0968C55.8101 36.0968 57.921 35.7286 59.4905 34.9922C59.9331 34.7843 60.1236 34.257 59.916 33.8141ZM34.9509 49.1522L19.5605 44.3442L28.0179 41.7028L36.5685 44.3737V47.1744C36.5685 47.8357 35.9895 48.5211 34.9509 49.1522ZM16.585 29.1394L8.41336 26.5857V21.302L14.2016 23.1103L25.047 26.4966L16.585 29.1394ZM13.615 30.0669L8.41336 31.6915V28.4415L13.615 30.0669ZM8.41336 33.547L16.8371 30.9162C16.8513 30.9119 16.8655 30.9078 16.8795 30.9029L28.2845 27.341C28.2895 27.3394 28.2946 27.338 28.2996 27.3363L36.5685 24.7539V30.0376L23.0118 34.2714L19.6713 35.3167L8.41336 38.8311V33.547ZM36.5685 21.1004L18.7137 15.5241C19.95 15.5872 21.2132 15.6196 22.4925 15.6196C27.6887 15.6196 32.6169 15.0871 36.5685 14.11V21.1004ZM36.4761 22.927L28.018 25.5687L14.7295 21.4196L8.41324 19.4464V14.1626L36.4761 22.927ZM8.41336 40.6866L20.1998 37.0071L23.5403 35.9617L36.5685 31.8929V37.1768L16.3608 43.488C16.3373 43.4943 16.3144 43.5015 16.2916 43.5096L8.41336 45.9702V40.6866ZM36.5685 39.0323V42.5182L30.9882 40.7752L36.5685 39.0323ZM1.77117 8.36472C1.77117 6.07628 9.65426 2.88433 22.4926 2.88433C35.331 2.88433 43.2141 6.07628 43.2141 8.36472C43.2141 10.6544 35.331 13.8484 22.4926 13.8484C9.65426 13.8484 1.77117 10.6544 1.77117 8.36472ZM43.2141 51.632C43.2141 53.9217 35.331 57.1158 22.4926 57.1158C9.65426 57.1158 1.77117 53.9217 1.77117 51.632C1.77117 50.7179 3.12012 49.3652 6.81879 48.1777C7.53492 50.1927 10.428 51.8311 15.0036 52.7589C15.063 52.7709 15.1221 52.7767 15.1805 52.7767C15.5931 52.7767 15.9623 52.4869 16.0475 52.0669C16.1448 51.5876 15.835 51.1201 15.3555 51.023C11.3474 50.2103 9.17402 48.876 8.58187 47.7731L16.5902 45.272L32.513 50.2462C30.0036 51.1021 26.5003 51.6925 22.4926 51.6925C21.4573 51.6925 20.4132 51.6519 19.3897 51.5723C18.9001 51.533 18.476 51.8989 18.438 52.3866C18.4001 52.8742 18.7645 53.3003 19.2523 53.3382C20.3215 53.4216 21.4116 53.4636 22.4927 53.4636C29.5198 53.4636 36.949 51.6192 38.1655 48.1785C41.8646 49.3663 43.2141 50.7185 43.2141 51.632Z" fill="url(#paint0_linear)"/>
<path d="M30.0339 10.2032C32.5941 9.6675 33.7864 8.90285 33.7864 7.79719C33.7864 6.69152 32.5942 5.92687 30.0339 5.39121C28.0097 4.9677 25.3315 4.73438 22.4926 4.73438C21.6565 4.73438 20.797 4.75594 19.9379 4.79848C19.4494 4.82273 19.0731 5.23828 19.0972 5.72684C19.1214 6.21527 19.537 6.59039 20.0256 6.56754C20.8555 6.52641 21.6855 6.50555 22.4926 6.50555C27.6887 6.50555 30.8747 7.27301 31.8134 7.7973C30.8747 8.3216 27.6887 9.08906 22.4926 9.08906C17.3143 9.08906 14.1326 8.32699 13.1817 7.80281C13.5728 7.58988 14.4218 7.26773 16.0155 6.99035C16.4974 6.90645 16.8202 6.44777 16.7363 5.96602C16.6523 5.48414 16.1947 5.16129 15.7119 5.24531C12.6328 5.78098 11.1988 6.59191 11.1988 7.79707C11.1988 8.90273 12.3911 9.66738 14.9513 10.203C16.9754 10.6266 19.6536 10.8599 22.4926 10.8599C25.3314 10.86 28.0097 10.6267 30.0339 10.2032Z" fill="url(#paint1_linear)"/>
</g>
<defs>
<linearGradient id="paint0_linear" x1="-2.3741" y1="94.1149" x2="85.9835" y2="90.5906" gradientUnits="userSpaceOnUse">
<stop stop-color="#315EFF"/>
<stop offset="1" stop-color="#C300D3"/>
</linearGradient>
<linearGradient id="paint1_linear" x1="10.305" y1="14.5949" x2="42.9661" y2="9.96936" gradientUnits="userSpaceOnUse">
<stop stop-color="#315EFF"/>
<stop offset="1" stop-color="#C300D3"/>
</linearGradient>
<clipPath id="clip0">
<rect width="60" height="60" fill="white"/>
</clipPath>
</defs>
</svg>
