<svg width="60" height="60" viewBox="0 0 60 60" fill="none" xmlns="http://www.w3.org/2000/svg">
<path d="M55 -2.77067e-05H15C13.6734 -0.00143396 12.4009 0.524855 11.4629 1.46282C10.525 2.40079 9.99867 3.67345 10.0001 4.99989V15C10.0018 16.6561 11.344 17.9982 13.0001 18C14.6537 17.9922 15.9923 16.6536 16.0001 15C15.9995 14.7302 16.1105 14.4722 16.3068 14.2871C16.4958 14.1031 16.7502 14.0018 17.014 14.0054C17.2778 14.009 17.5293 14.1174 17.713 14.3066C17.8989 14.4892 18.0026 14.7395 18.0001 15V21C18.0019 22.6561 19.344 23.9982 21.0001 24C22.6538 23.9922 23.9924 22.6536 24.0001 21V15C24.0005 14.4479 24.448 14.0004 25.0001 14C25.2698 13.9994 25.5278 14.1104 25.7129 14.3067C25.8988 14.4893 26.0025 14.7396 26 15.0001V28.0098C25.6663 28.0061 25.335 28.0001 25.0001 28.0001C12.5762 27.9999 0 30.4043 0 35C0 48.807 11.1929 60 25 60C38.807 60 49.9999 48.807 49.9999 35C49.9999 31.0247 40.8727 28.9306 31.9999 28.2584V11.25C32.0033 10.8322 32.03 10.4148 32.08 9.99993H54.9998C57.7612 9.99993 59.9999 7.76142 59.9999 4.99989C59.9999 2.23837 57.7615 -2.77067e-05 55 -2.77067e-05ZM25 57.9999C13.4879 57.9843 3.75563 49.4703 2.20992 38.0625C6.35437 40.6575 15.7185 42 25 42C26.5605 42 27.9795 41.9668 29.335 41.8994C36.2784 41.5899 44.0661 40.4102 47.7868 38.0879C46.2298 49.4844 36.5025 57.9846 25 57.9999ZM48 35C48 36.6611 41.3213 39.3623 29.2403 39.9014C27.9141 39.9678 26.5264 40.0001 25.0001 40.0001C10.9601 40.0001 2.00004 37.0391 2.00004 35C2.00004 32.9609 10.96 30 25 30C25.3339 30 25.6679 30.0029 25.9999 30.0058V32C26.0017 33.6561 27.3438 34.9983 28.9999 35C30.6536 34.9923 31.9922 33.6536 31.9999 32V30.2636C42.4473 31.0722 48 33.496 48 35ZM31.7686 4.87005C30.5802 6.78349 29.9662 8.99786 30 11.25V32C30.0006 32.2698 29.8896 32.5278 29.6933 32.7129C29.5107 32.8987 29.2604 33.0024 28.9999 33C28.4479 32.9996 28.0003 32.5521 28 32V15C27.9922 13.3463 26.6536 12.0077 25 12C23.3439 12.0017 22.0017 13.3439 22 15V21C22.0005 21.2697 21.8896 21.5278 21.6933 21.7128C21.5107 21.8987 21.2604 22.0024 20.9999 21.9999C20.4478 21.9996 20.0003 21.552 19.9999 21V15C20.0064 14.2083 19.6914 13.4478 19.1269 12.8926C17.948 11.7543 16.0819 11.7458 14.8925 12.873C14.3177 13.4308 13.9954 14.199 13.9999 15C14.0005 15.2697 13.8895 15.5278 13.6932 15.7128C13.5107 15.8987 13.2604 16.0024 12.9998 15.9999C12.4477 15.9996 12.0002 15.552 11.9999 15V5.00001C11.9984 4.20384 12.3138 3.43989 12.8768 2.87693C13.4398 2.31396 14.2037 1.99837 14.9999 2.00001H33.7457C33.4413 2.70185 33.0178 3.34579 32.494 3.90337C32.2219 4.2015 31.9788 4.52528 31.7686 4.87005ZM55 8.00001H32.5155C32.7417 7.27251 33.0604 6.577 33.4638 5.93071C33.6116 5.68661 33.783 5.45775 33.9756 5.24716C34.852 4.33169 35.4935 3.21759 35.8453 2.00013H55C56.6568 2.00013 58 3.34333 58 5.00013C58 6.65693 56.6569 8.00001 55 8.00001Z" fill="url(#paint0_linear)"/>
<defs>
<linearGradient id="paint0_linear" x1="-2.3741" y1="96.5853" x2="85.9936" y2="93.1914" gradientUnits="userSpaceOnUse">
<stop stop-color="#315EFF"/>
<stop offset="1" stop-color="#C300D3"/>
</linearGradient>
</defs>
</svg>
